<?xml version="1.0" encoding="UTF-8" standalone="no"?>
<!-- Created with Inkscape (http://www.inkscape.org/) -->

<svg
   width="63.295273mm"
   height="69.479462mm"
   viewBox="0 0 63.295273 69.479462"
   version="1.1"
   id="svg1"
   xml:space="preserve"
   xmlns="http://www.w3.org/2000/svg"
   xmlns:svg="http://www.w3.org/2000/svg"><defs
     id="defs1" /><g
     id="layer1"
     transform="translate(-84.841758,-131.30625)"><path
       style="fill:#ffffff"
       d="m 98.449672,200.72678 c -0.302683,-0.0437 -0.724848,-0.0938 -0.938143,-0.11139 -0.213295,-0.0176 -0.460945,-0.0698 -0.550333,-0.11607 -0.08939,-0.0463 -0.372074,-0.13143 -0.628191,-0.18923 -0.533599,-0.12043 -1.521543,-0.62648 -2.201333,-1.12758 -1.885164,-1.38965 -3.849238,-3.1569 -4.753253,-4.27692 -1.179266,-1.46104 -1.954371,-2.81413 -2.822272,-4.92679 -0.353904,-0.86148 -0.718955,-1.73778 -0.811223,-1.94733 -0.09227,-0.20955 -0.24358,-0.7239 -0.336249,-1.143 -0.09267,-0.4191 -0.266271,-1.20015 -0.385782,-1.73567 -0.182146,-0.81617 -0.20802,-1.08865 -0.15996,-1.68453 0.03153,-0.39097 0.06922,-1.01962 0.08376,-1.397 0.06879,-1.78605 1.711364,-6.13095 2.79749,-7.39985 0.149867,-0.17508 0.556938,-0.69827 0.904603,-1.16264 0.775995,-1.03649 1.840332,-2.13699 2.35022,-2.43008 0.20955,-0.12045 0.90012,-0.43036 1.5346,-0.68868 0.945091,-0.38478 1.379819,-0.50861 2.405184,-0.68511 1.210093,-0.2083 2.57955,-0.28672 2.57955,-0.14771 0,0.0373 -0.04055,0.10829 -0.09012,0.15786 -0.06372,0.0637 0.09131,0.10781 0.529167,0.15051 0.340609,0.0332 0.847889,0.11402 1.127289,0.17956 0.624294,0.14645 0.640037,0.14685 0.613833,0.0158 -0.01434,-0.0717 0.124968,-0.11419 0.431691,-0.13172 l 0.45286,-0.0259 -0.46721,-0.28134 c -0.256965,-0.15473 -0.646945,-0.34258 -0.866622,-0.41743 -0.404571,-0.13785 -1.653906,-0.84939 -3.420626,-1.94815 -1.193862,-0.7425 -2.146376,-1.6555 -2.531779,-2.42676 -0.146197,-0.29256 -0.265814,-0.60106 -0.265814,-0.68554 0,-0.0845 -0.1143,-0.44134 -0.254,-0.79302 -0.248827,-0.62638 -0.253977,-0.66997 -0.252887,-2.14003 8.92e-4,-1.20436 0.03596,-1.65943 0.177644,-2.30497 0.09709,-0.44238 0.22591,-1.1313 0.286261,-1.53092 0.16192,-1.07218 0.294081,-1.66357 0.509315,-2.27908 0.105844,-0.30268 0.215004,-0.78768 0.242578,-1.07778 0.02757,-0.2901 0.130677,-0.76635 0.229118,-1.05834 0.09844,-0.29198 0.192991,-0.72138 0.210111,-0.95421 0.01712,-0.23283 0.07368,-0.97578 0.125678,-1.651 0.133925,-1.7389 -0.0087,-4.94032 -0.295897,-6.64376 -0.264513,-1.56867 -0.413347,-4.39922 -0.305184,-5.80404 0.0776,-1.0078 0.385389,-2.28421 0.703939,-2.9192 0.273214,-0.54463 1.119673,-1.74324 1.626881,-2.30373 0.441676,-0.48806 0.621168,-0.60528 1.576147,-1.02931 0.943744,-0.41904 2.588437,-0.36091 3.463627,0.12242 0.11642,0.0643 0.44027,0.21496 0.71967,0.33481 0.72003,0.30888 2.97554,1.61549 3.429,1.98642 0.20955,0.17141 0.55245,0.41855 0.762,0.54919 0.83836,0.52265 2.98609,2.68898 5.03767,5.08129 1.81402,2.1153 2.1806,2.58306 4.24666,5.41891 0.88401,1.21338 1.94975,2.81845 2.33971,3.52375 0.17042,0.30823 0.40178,0.62065 0.51414,0.69427 0.20147,0.13201 0.20848,0.12719 0.50639,-0.34875 0.16616,-0.26543 0.51756,-0.7112 0.78091,-0.9906 0.73631,-0.78121 1.3522,-1.79923 1.9392,-3.20534 0.29434,-0.7051 0.78214,-1.79635 1.08398,-2.425 0.30185,-0.62865 0.76761,-1.6764 1.03502,-2.32833 0.76434,-1.86339 1.3699,-3.23734 1.79117,-4.064 0.40802,-0.80066 1.20893,-2.07434 1.30437,-2.07434 0.0308,0 0.26814,-0.27622 0.52746,-0.61383 0.57672,-0.75083 1.04314,-1.14679 1.88706,-1.60199 0.59331,-0.32003 0.71117,-0.35211 1.43236,-0.38983 0.76548,-0.04 0.80203,-0.0333 1.40905,0.25996 0.46673,0.22548 0.72946,0.42388 1.04652,0.79027 0.51247,0.59221 1.04586,1.34228 1.15081,1.61831 0.0424,0.11148 0.17151,0.32652 0.28695,0.47787 0.34485,0.45212 0.61698,1.48814 1.42583,5.42825 0.48292,2.35243 0.6482,4.38005 0.64876,7.95866 4.7e-4,3.00573 -0.0993,5.35629 -0.30177,7.112 -0.0698,0.60537 -0.18526,1.61502 -0.25653,2.24367 -0.0713,0.62865 -0.25727,1.80975 -0.41333,2.62467 -0.15607,0.81491 -0.30928,1.67216 -0.34048,1.905 -0.0312,0.23283 -0.0904,0.55746 -0.13168,0.7214 -0.0412,0.16393 -0.0929,0.43821 -0.11483,0.6095 -0.11584,0.90477 -1.83864,6.35649 -2.58741,8.18777 -0.22039,0.539 -0.50661,1.30384 -0.63604,1.69966 -0.12944,0.39582 -0.30063,0.85302 -0.38042,1.016 -0.0798,0.16298 -0.22528,0.63927 -0.32329,1.05842 -0.098,0.41914 -0.23702,0.92876 -0.30889,1.13247 -0.17067,0.48372 -0.16704,0.49745 0.072,0.27288 0.17714,-0.16641 0.22517,-0.17638 0.381,-0.0791 0.0981,0.0613 0.1803,0.18792 0.18273,0.28149 0.002,0.0936 0.0799,-0.0262 0.17215,-0.26606 0.13147,-0.34188 0.23311,-0.46721 0.47011,-0.57967 0.16631,-0.0789 0.40003,-0.12482 0.51938,-0.10201 0.1672,0.032 0.2792,-0.0245 0.48798,-0.24582 0.17873,-0.18951 0.34918,-0.28731 0.50077,-0.28731 0.16302,0 0.35529,-0.12483 0.66162,-0.42955 0.67743,-0.67388 2.12186,-1.84761 4.63424,-3.76575 1.59424,-1.21716 2.16608,-1.74723 2.91822,-2.70503 0.55616,-0.70825 1.25012,-1.99354 1.34615,-2.49324 0.11935,-0.62104 0.58021,-0.93223 0.6962,-0.47009 0.0757,0.30162 -0.005,0.5522 -0.4864,1.51726 -0.67783,1.35783 -1.99786,2.96269 -3.01246,3.66248 -2.441,1.68361 -4.7621,3.41743 -5.7359,4.28461 l -0.42187,0.37568 0.16426,0.305 0.16425,0.305 0.42694,-0.25378 c 1.37462,-0.8171 2.13215,-1.12664 6.22661,-2.54426 1.92927,-0.66797 3.48951,-1.45608 4.56292,-2.30483 0.62622,-0.49516 1.43617,-1.44021 1.49856,-1.74853 0.10462,-0.51699 0.24508,-0.8604 0.45451,-1.11128 0.1901,-0.2277 0.26268,-0.26071 0.46284,-0.21047 0.21461,0.0539 0.23219,0.0856 0.18325,0.33068 -0.16101,0.80634 -0.92492,1.96978 -1.84754,2.81378 -1.33803,1.22403 -2.68769,1.8581 -6.83854,3.21274 -0.81491,0.26595 -1.84361,0.61795 -2.286,0.78223 -1.98518,0.73718 -3.79724,1.82829 -2.75559,1.65926 0.24844,-0.0403 0.33277,-0.007 0.56089,0.22103 0.23904,0.23905 0.26393,0.30888 0.22695,0.63696 -0.0637,0.56517 -0.64139,1.33748 -1.17078,1.56522 -0.28604,0.12305 -0.45875,0.26348 -0.55579,0.45187 -0.0774,0.15034 -0.23038,0.39124 -0.33989,0.53534 -0.24886,0.32744 -0.25083,0.46936 -0.009,0.62042 0.4598,0.28676 1.58862,1.30988 1.94104,1.75928 0.62685,0.79934 1.3983,2.02201 1.60524,2.54414 0.15907,0.40135 0.19359,0.65285 0.19659,1.43229 0.002,0.51999 -0.0256,0.97465 -0.0613,1.01035 -0.12737,0.12736 -0.24194,-0.11968 -0.32217,-0.69468 -0.0448,-0.32109 -0.14201,-0.79334 -0.21602,-1.04946 -0.074,-0.25612 -0.15137,-0.55728 -0.17192,-0.66926 -0.0492,-0.26831 -0.1034,-0.36751 -0.90557,-1.65907 -0.4902,-0.78928 -0.86417,-1.27607 -1.32184,-1.72064 -0.72137,-0.70072 -0.99786,-0.9113 -1.08374,-0.82541 -0.10128,0.10127 0.63223,1.42663 1.1309,2.0434 0.58879,0.72824 0.87902,1.32068 0.88011,1.79653 4.5e-4,0.19941 0.0555,0.49344 0.12235,0.65341 0.13986,0.33473 0.17688,2.24371 0.0435,2.24371 -0.0442,0 -0.0834,-0.0476 -0.0871,-0.10584 -0.004,-0.0582 -0.0475,0.007 -0.0974,0.14394 -0.0667,0.18362 -0.0649,0.25836 0.007,0.28222 0.13632,0.0454 0.12135,0.36975 -0.0268,0.58132 -0.14356,0.20496 -0.076,0.53961 0.20528,1.01629 0.19601,0.33221 0.205,0.36807 0.0923,0.36807 -0.0443,0 -0.20181,-0.17619 -0.34997,-0.39152 -0.29779,-0.43282 -0.30966,-0.56584 -0.24465,-2.74115 0.0256,-0.85564 3.1e-4,-1.08142 -0.20847,-1.86267 -0.13066,-0.48895 -0.30457,-0.98425 -0.38646,-1.10066 -0.0819,-0.11642 -0.38818,-0.68792 -0.68065,-1.27 -0.29248,-0.58209 -0.54099,-1.0705 -0.55224,-1.08537 -0.0113,-0.0149 -0.0994,0.0223 -0.19593,0.0825 -0.13846,0.0865 -0.19734,0.0877 -0.27918,0.006 -0.16045,-0.16044 -0.22268,-0.12799 -0.39367,0.20531 -0.14334,0.27939 -0.14662,0.33291 -0.0343,0.55815 0.0762,0.1528 0.10738,0.37515 0.0806,0.57505 -0.0295,0.21961 0.0194,0.50012 0.14983,0.86002 0.34811,0.96061 0.65714,3.29874 0.4824,3.64979 -0.051,0.10247 -0.17235,0.46253 -0.26965,0.80014 -0.17623,0.6115 -0.33907,0.80463 -0.33907,0.40216 0,-0.11641 -0.0343,-0.21166 -0.0762,-0.21166 -0.0419,0 -0.0786,0.14287 -0.0815,0.3175 -0.003,0.17462 -0.0296,0.79955 -0.0593,1.38873 l -0.054,1.07123 0.30481,0.67509 c 0.16764,0.3713 0.30481,0.71792 0.30481,0.77027 0,0.21557 -0.18318,0.0712 -0.3529,-0.27813 -0.11063,-0.22771 -0.22412,-0.35689 -0.29099,-0.33123 -0.18437,0.0708 -0.37211,-0.5316 -0.37211,-1.19387 0,-0.33425 -0.0337,-0.64392 -0.0749,-0.68816 -0.18519,-0.1989 0.19054,-1.81097 0.47619,-2.04307 0.17781,-0.14448 0.24311,-1.11855 0.17777,-2.6517 -0.0359,-0.84233 -0.10199,-1.43362 -0.18453,-1.651 -0.0707,-0.18626 -0.13129,-0.27199 -0.13458,-0.1905 -0.008,0.19217 -0.009,0.19191 -0.51309,-0.10532 -0.2962,-0.17464 -0.43996,-0.22073 -0.46223,-0.14816 -0.21683,0.70656 -0.70787,1.87931 -0.79942,1.90923 -0.0905,0.0296 -0.1044,-0.0181 -0.0601,-0.20537 l 0.0577,-0.24388 -0.17097,0.25339 c -0.094,0.13936 -0.21335,0.3557 -0.26515,0.48075 -0.0518,0.12505 -0.15207,0.24958 -0.22284,0.27674 -0.10311,0.0396 -0.11768,0.003 -0.0733,-0.18442 0.0522,-0.22058 0.0451,-0.21744 -0.12498,0.0556 -0.12915,0.20728 -0.19941,0.25844 -0.24768,0.18034 -0.0517,-0.0837 -0.0871,-0.0737 -0.15251,0.0431 -0.0634,0.11332 -0.0287,0.29407 0.13617,0.70866 0.19742,0.49646 0.22059,0.6662 0.21458,1.57253 -0.006,0.95342 -0.14136,2.41411 -0.25832,2.794 l -0.0521,0.16933 -0.0662,-0.16933 c -0.0364,-0.0931 -0.0695,-0.35983 -0.0734,-0.59267 -0.0121,-0.70556 -0.14972,-0.26842 -0.16735,0.53151 -0.009,0.40014 -0.0305,0.75096 -0.0482,0.77959 -0.0177,0.0286 -0.0928,0.5754 -0.16696,1.21502 -0.12129,1.04649 -0.12184,1.2011 -0.005,1.54388 0.0711,0.20951 0.12932,0.51294 0.12932,0.6743 0,0.45456 -0.21583,0.36956 -0.3837,-0.15113 -0.0788,-0.24447 -0.22218,-0.60681 -0.31857,-0.80519 -0.17408,-0.35824 -0.17424,-0.36745 -0.024,-1.35467 0.0832,-0.54668 0.30381,-1.58452 0.49021,-2.30631 0.29646,-1.14796 0.34447,-1.4672 0.38324,-2.54883 0.0295,-0.82393 0.0132,-1.29005 -0.0489,-1.397 -0.0748,-0.1289 -0.0937,-0.13401 -0.0958,-0.0259 -0.004,0.19223 -0.39384,0.35421 -0.59452,0.24681 -0.25166,-0.13469 -0.38691,-0.101 -0.50879,0.12673 -0.13504,0.25232 -0.61044,0.55021 -0.87809,0.55021 -0.1353,0 -0.23267,0.0871 -0.33328,0.29806 -0.12043,0.25254 -0.12907,0.39016 -0.0566,0.90135 0.0804,0.56691 0.13444,0.83488 0.46672,2.31426 0.21633,0.96318 0.18603,2.921 -0.0452,2.921 -0.0408,0 -0.0861,-0.12382 -0.10065,-0.27517 -0.0146,-0.15134 -0.0867,0.20109 -0.16025,0.78317 -0.12647,1.00103 -0.12536,1.08584 0.0205,1.56633 0.16276,0.53606 0.20181,0.97367 0.0869,0.97367 -0.0858,0 -0.33928,-0.84571 -0.4061,-1.35467 -0.0285,-0.21689 0.0112,-0.72745 0.0921,-1.18533 0.17074,-0.96664 0.16982,-2.03626 -0.002,-2.69302 -0.17618,-0.67222 -0.46166,-2.54792 -0.46166,-3.03326 0,-0.3139 -0.0226,-0.38101 -0.1016,-0.30199 -0.15516,0.15516 -0.41656,0.12158 -0.63246,-0.0812 l -0.19463,-0.18285 -0.13293,0.31816 c -0.0731,0.17499 -0.22314,0.40176 -0.33339,0.50394 l -0.20046,0.18578 0.11997,0.75841 c 0.16213,1.02488 0.25187,4.07837 0.14048,4.78007 -0.0989,0.62283 -0.61063,1.97501 -0.73932,1.95342 -0.0995,-0.0167 -0.0731,-0.61525 0.0432,-0.97975 0.27742,-0.86978 0.45333,-4.7408 0.25009,-5.50334 -0.0395,-0.14824 -0.0481,0.0545 -0.0207,0.48684 0.0268,0.42275 0.014,0.74083 -0.03,0.74083 -0.0936,0 -0.28495,-0.96526 -0.28495,-1.43711 0,-0.23399 -0.0368,-0.34089 -0.11726,-0.34089 -0.0645,0 -0.18221,-0.0991 -0.26158,-0.22025 l -0.14431,-0.22025 -0.25527,0.24142 c -0.46393,0.43877 -0.9825,1.17642 -1.19547,1.70052 -0.11542,0.28405 -0.37142,0.8149 -0.5689,1.17968 -0.19748,0.36477 -0.46396,0.87276 -0.59217,1.12888 -0.12821,0.25612 -0.3135,0.53825 -0.41174,0.62696 -0.0983,0.0887 -0.17863,0.21151 -0.17863,0.2729 0,0.22788 -0.37542,0.88216 -0.48258,0.84103 -0.0594,-0.0228 -0.10401,-0.0143 -0.0991,0.019 0.0381,0.25535 -0.0633,0.49418 -0.39951,0.94145 -0.21365,0.28422 -0.4232,0.4953 -0.46566,0.46906 -0.0425,-0.0262 -0.0772,-0.002 -0.0772,0.0543 0,0.24835 -2.20684,3.2077 -2.39326,3.20935 -0.0357,3.2e-4 -0.2292,0.17203 -0.42999,0.38158 -0.40162,0.41915 -0.67231,0.48336 -0.98155,0.23283 -0.33199,-0.26895 -0.35517,-0.6931 -0.0905,-1.65535 0.43968,-1.59832 1.07674,-2.93792 1.90527,-4.00633 0.49444,-0.63759 2.30607,-3.04067 2.58063,-3.42312 0.1153,-0.16062 0.20072,-0.34918 0.18982,-0.41903 -0.0109,-0.0699 0.1323,-0.32703 0.31822,-0.5715 0.3946,-0.51886 0.31599,-0.6092 -0.0872,-0.10017 -0.28887,0.36472 -3.04637,2.59315 -4.45141,3.59733 -1.05277,0.75241 -2.77115,1.85798 -3.5451,2.28084 -0.32597,0.17809 -0.95462,0.54067 -1.397,0.80573 -0.44239,0.26505 -1.31869,0.77861 -1.94734,1.14123 -0.62865,0.36263 -1.42875,0.85101 -1.778,1.08529 -2.06146,1.38285 -5.16632,2.20971 -7.196664,1.91656 z m 1.761068,-1.11291 c 0.17947,-0.17947 0.11853,-0.55013 -0.12149,-0.73892 -0.297483,-0.23401 -0.490868,-0.22127 -0.609988,0.0402 -0.130872,0.28723 -0.126764,0.31794 0.07722,0.57726 0.185411,0.23572 0.484488,0.29125 0.654258,0.12149 z m -2.247461,-0.17357 c 0.05862,-0.1737 -0.176115,-0.94393 -0.31967,-1.0489 -0.139037,-0.10167 -0.4309,-0.0651 -0.612104,0.0767 -0.187144,0.14643 -0.113426,0.4653 0.179331,0.77571 0.289949,0.30744 0.680579,0.40947 0.752443,0.19653 z m 4.467791,-0.2296 c 1.92128,-0.44561 2.29967,-0.6092 5.24727,-2.26854 5.45532,-3.07107 7.88843,-4.69954 10.795,-7.22506 1.08383,-0.94175 1.34713,-1.22383 1.35864,-1.45557 0.0127,-0.25542 0.22865,-0.65825 0.7687,-1.43384 0.49858,-0.71604 0.56765,-0.87891 0.24366,-0.57454 -0.44494,0.41801 -0.30326,-0.0668 0.24735,-0.84635 0.41726,-0.59076 0.43309,-0.6238 0.24937,-0.52051 -0.0871,0.049 -0.69178,0.62872 -1.34372,1.2883 -0.65193,0.65959 -1.60443,1.54988 -2.11666,1.97844 -0.93654,0.78354 -1.32715,1.08606 -3.429,2.65569 -0.62865,0.46946 -1.50794,1.15106 -1.95397,1.51466 -3.89776,3.1774 -5.12349,4.07416 -7.23237,5.29136 -0.60537,0.3494 -1.29117,0.75229 -1.524,0.89532 -0.51902,0.31882 -1.27838,0.57794 -1.92617,0.65729 -0.26776,0.0328 -0.48683,0.087 -0.48683,0.12043 0,0.10285 0.11333,0.18081 0.20931,0.14398 0.0501,-0.0192 0.45217,-0.11872 0.89342,-0.22106 z m 1.14093,-1.10106 c 0.4191,-0.26879 0.99637,-0.62751 1.28282,-0.79716 0.67086,-0.39732 2.14311,-1.47251 4.00885,-2.92765 0.81492,-0.63557 2.23984,-1.70596 3.1665,-2.37864 3.67683,-2.6691 4.13735,-3.03672 6.57017,-5.24486 0.97293,-0.88306 2.22597,-1.94216 2.9367,-2.48213 0.56897,-0.43228 0.68241,-0.62827 0.52927,-0.91442 -0.0853,-0.15944 -0.071,-0.20881 0.10115,-0.34855 l 0.20055,-0.1628 -0.25389,0.0559 c -0.24058,0.053 -2.14245,1.27431 -2.41311,1.54963 -0.0698,0.071 0.006,0.0442 0.16933,-0.0596 0.48654,-0.31 1.6307,-0.85523 1.79469,-0.85523 0.23979,0 0.17861,0.14372 -0.10296,0.24188 -0.14059,0.049 -1.08356,0.58951 -2.0955,1.20112 -1.95369,1.1808 -5.31827,3.06436 -9.98925,5.59221 -0.75682,0.40957 -1.78552,1.00174 -2.28601,1.31592 -0.50048,0.31418 -1.38622,0.8447 -1.9683,1.17894 -0.58209,0.33424 -1.47744,0.87703 -1.98967,1.20621 -0.51224,0.32918 -1.31099,0.83696 -1.77501,1.12842 -0.93624,0.58806 -1.43689,1.00534 -1.611636,1.34326 -0.101826,0.19691 -0.09747,0.25263 0.03563,0.45553 0.176206,0.26862 0.386626,0.42743 0.684016,0.51627 0.11641,0.0348 0.44026,0.2046 0.71966,0.37738 0.65418,0.40452 1.14159,0.59973 1.35467,0.54252 0.0931,-0.025 0.51223,-0.26537 0.93133,-0.53415 z m -4.555555,0.0262 c -0.06767,-0.13239 -0.149711,-0.36453 -0.182303,-0.51587 -0.03259,-0.15134 -0.0696,-0.27517 -0.08223,-0.27517 -0.01263,0 -0.142957,0.0418 -0.289606,0.093 -0.323418,0.11275 -0.352237,0.2615 -0.04412,0.22776 0.191036,-0.0209 0.239154,0.023 0.340151,0.31021 0.106428,0.30271 0.273924,0.50805 0.351295,0.43068 0.01642,-0.0164 -0.02551,-0.13818 -0.09319,-0.27056 z m -4.309199,-0.48957 c 0.01822,-0.43535 0.0032,-0.47276 -0.274131,-0.68431 -0.161371,-0.12309 -0.358803,-0.21112 -0.438739,-0.19564 -0.159695,0.0309 -0.439401,0.45346 -0.449183,0.67855 -0.0091,0.20971 0.659774,0.6251 1.055131,0.65525 0.04836,0.004 0.09629,-0.19977 0.106922,-0.45385 z m 4.256834,-1.28318 c 0.112892,-0.12084 0.319559,-0.27826 0.459259,-0.34983 0.1397,-0.0716 1.187451,-0.76853 2.328331,-1.54882 1.14088,-0.78028 2.45534,-1.6576 2.921,-1.94959 2.95803,-1.85481 3.15138,-1.96728 5.055,-2.94051 0.89852,-0.45937 2.50997,-1.3073 3.58101,-1.8843 1.07103,-0.577 2.58625,-1.3673 3.36716,-1.75622 0.78091,-0.38893 1.39962,-0.73983 1.37492,-0.7798 -0.0247,-0.04 0.13648,-0.19513 0.35817,-0.34481 0.22169,-0.14968 0.91743,-0.61586 1.54608,-1.03595 0.62865,-0.42009 1.1811,-0.79825 1.22767,-0.84035 0.12018,-0.10867 -0.72494,0.006 -1.43934,0.19574 -0.32596,0.0865 -0.97366,0.2168 -1.43933,0.28965 -0.46567,0.0728 -1.32292,0.22551 -1.905,0.33924 -1.39504,0.27257 -2.53819,0.37926 -4.06362,0.37926 -1.3953,0 -2.0942,0.10585 -3.57407,0.54131 -1.06421,0.31315 -1.51946,0.56715 -2.83829,1.58357 -1.38211,1.06518 -2.89351,2.05475 -3.99947,2.61861 -1.14361,0.58305 -1.65792,0.94516 -2.982006,2.09958 -0.932299,0.81283 -1.252874,1.16988 -1.627322,1.81246 -0.184306,0.31628 -0.22091,0.45876 -0.174023,0.67734 0.08563,0.39921 0.122246,0.43175 0.302388,0.26872 0.252949,-0.22891 0.262317,-0.0989 0.01871,0.25957 -0.21249,0.3127 -0.217305,0.34476 -0.113756,0.75718 0.05947,0.23687 0.125692,0.46121 0.147162,0.49854 0.02147,0.0373 0.224437,-0.10554 0.451039,-0.3175 0.530402,-0.49613 0.716365,-0.5006 0.260706,-0.006 -0.251381,0.27272 -0.34945,0.4521 -0.34945,0.6392 0,0.2438 0.167855,0.66755 0.359616,0.90786 0.143912,0.18035 0.527132,0.12196 0.747459,-0.11388 z m -1.022408,-2.04727 c 0,-0.0925 1.446705,-1.51262 2.359638,-2.31623 1.43692,-1.26486 1.63546,-1.42803 1.73238,-1.42379 0.17124,0.007 -3.522723,3.50695 -3.934509,3.72733 -0.08663,0.0464 -0.157509,0.0521 -0.157509,0.0127 z m 2.201328,-1.52443 c 0,-0.10125 1.11695,-1.01526 2.20134,-1.80136 0.53551,-0.38821 1.17517,-0.8698 1.42146,-1.0702 0.58752,-0.47805 0.77529,-0.4657 0.22954,0.0151 -0.23284,0.20512 -0.42334,0.40666 -0.42334,0.44785 0,0.10905 -0.83258,0.76832 -1.56633,1.24029 -0.34925,0.22464 -0.89159,0.59428 -1.2052,0.82142 -0.58398,0.42295 -0.65747,0.46173 -0.65747,0.3469 z m -0.757989,-1.01342 c 0.0022,-0.0349 0.202271,-0.22196 0.444595,-0.41563 0.242324,-0.19368 0.821544,-0.68622 1.287164,-1.09454 0.83242,-0.73 1.84436,-1.44222 2.56927,-1.80829 0.55003,-0.27776 0.5245,-0.14354 -0.0413,0.21712 -0.27284,0.17392 -1.04356,0.75713 -1.7127,1.29603 -1.30524,1.05117 -2.384637,1.86075 -2.487545,1.86573 -0.03493,0.002 -0.0617,-0.0255 -0.05949,-0.0604 z m 4.271659,-1.43936 c 0.0466,-0.0487 0.33232,-0.24398 0.635,-0.43407 0.30269,-0.1901 0.60047,-0.38835 0.66174,-0.44056 0.0613,-0.0522 0.13104,-0.0753 0.15505,-0.0513 0.0479,0.0479 -1.15085,0.87869 -1.38855,0.96232 -0.10132,0.0357 -0.12124,0.0242 -0.0632,-0.0364 z m 0.29633,-1.57137 c 0,-0.13702 2.29047,-1.58132 3.37392,-2.1275 0.81116,-0.40892 0.53611,-0.18327 -0.56306,0.46191 -0.59132,0.3471 -1.41547,0.85456 -1.83145,1.1277 -0.76103,0.49972 -0.97941,0.61965 -0.97941,0.53789 z m -12.694429,6.79658 c 0.119638,-0.064 0.163768,-0.1781 0.163768,-0.42333 0,-0.41539 -0.23129,-0.67436 -0.60228,-0.67436 h -0.263614 l 0.05917,0.40217 c 0.03266,0.22196 0.138425,0.48753 0.236039,0.59267 0.204563,0.22033 0.192915,0.21738 0.406917,0.10285 z m 4.716929,-0.0442 c 0.228688,-0.16018 0.253332,-0.62291 0.05806,-1.09025 -0.140484,-0.33622 -0.21459,-0.34359 -0.744395,-0.0739 -0.228732,0.11642 -0.480164,0.55043 -0.480164,0.82885 0,0.16878 0.487311,0.46641 0.764328,0.46682 0.117697,1.8e-4 0.298672,-0.059 0.402167,-0.13148 z m -2.436495,-0.33659 c 0,-0.18872 -0.220329,-0.68614 -0.335428,-0.75728 -0.110834,-0.0685 -0.0405,0.47533 0.09555,0.73883 0.09435,0.18274 0.239877,0.19393 0.239877,0.0185 z m -2.770326,-2.19861 c 0.387033,-0.16425 0.399034,-0.18024 0.399342,-0.53202 2.83e-4,-0.323 0.03201,-0.38139 0.289894,-0.53355 0.159267,-0.094 0.328457,-0.27366 0.375979,-0.39931 0.04752,-0.12565 0.17321,-0.36181 0.279308,-0.52479 0.145905,-0.22413 0.156254,-0.26703 0.04247,-0.17608 -0.08274,0.0661 -0.247106,0.28521 -0.365263,0.48683 -0.252743,0.43127 -0.335172,0.45514 -0.409124,0.11843 -0.05752,-0.26187 -0.253401,-0.48455 -0.324727,-0.36915 -0.0232,0.0376 -0.0684,0.20801 -0.100444,0.37881 -0.04332,0.2309 -0.16472,0.40032 -0.473353,0.66056 -0.339608,0.28636 -0.415094,0.39991 -0.415094,0.62437 0,0.25428 0.141304,0.50912 0.253649,0.45746 0.02658,-0.0122 0.227894,-0.0984 0.447358,-0.19156 z m 4.857019,-0.24177 c 0.496223,-0.33825 1.507474,-1.18599 2.527641,-2.11893 1.173163,-1.07286 2.666331,-2.09795 3.931661,-2.69917 1.05658,-0.50202 2.9401,-1.61139 3.53712,-2.0833 0.23575,-0.18635 0.69007,-0.51346 1.00959,-0.72692 0.912,-0.60925 1.1661,-0.80825 1.03206,-0.80825 -0.0683,0 -0.27579,0.12968 -0.46096,0.28818 -0.26996,0.23108 -0.36726,0.27106 -0.49106,0.20178 -0.1428,-0.0799 -0.13626,-0.10085 0.0871,-0.27894 l 0.24147,-0.19254 -0.76048,-0.0725 c -0.41826,-0.0399 -1.16053,-0.071 -1.64948,-0.0691 -0.7972,0.003 -0.95457,0.0306 -1.524,0.2662 -1.31784,0.54536 -4.298628,1.95968 -4.868333,2.30991 -0.85378,0.52488 -4.051487,2.94024 -4.755351,3.59191 -0.521404,0.48274 -0.592993,0.58437 -0.556024,0.78941 0.05413,0.30021 0.15398,0.42274 0.546327,0.67042 0.19266,0.12162 0.398545,0.36045 0.52378,0.60759 0.113489,0.22396 0.294903,0.44671 0.403143,0.49501 0.285475,0.12738 0.917592,0.0393 1.225818,-0.17079 z m -6.955026,-1.11995 c 0,-0.16205 -0.04326,-0.24695 -0.125841,-0.24695 -0.139229,0 -0.212206,0.23484 -0.135275,0.43532 0.08043,0.2096 0.261116,0.0793 0.261116,-0.18837 z m 37.053408,-1.68628 -0.0794,-0.33867 -0.008,0.42333 c -0.004,0.23284 0.0205,0.63289 0.055,0.889 l 0.0628,0.46567 0.0244,-0.55033 c 0.0134,-0.30269 -0.0113,-0.70274 -0.055,-0.889 z m -31.9571,-0.2328 c 0.832335,-0.72777 2.213274,-1.80669 3.243359,-2.53402 0.708892,-0.50054 1.822273,-1.11113 3.048001,-1.67155 0.53551,-0.24484 1.35328,-0.62033 1.81724,-0.83441 0.46397,-0.21408 1.1641,-0.48915 1.55584,-0.61126 l 0.71226,-0.22203 -0.85772,-0.15738 -0.85771,-0.15737 -0.65579,0.23347 c -0.36068,0.12842 -1.05584,0.35692 -1.54479,0.50778 -1.007711,0.31093 -4.385865,1.96408 -5.206998,2.54812 -0.782352,0.55645 -1.78915,1.47824 -2.113406,1.93496 -0.387382,0.54562 -0.608473,1.19768 -0.464797,1.3708 0.06365,0.0767 0.170748,0.1048 0.274219,0.072 0.176503,-0.056 0.178459,-0.007 0.01717,0.43106 -0.05925,0.16089 -0.05575,0.16053 0.0702,-0.007 0.07291,-0.0972 0.50622,-0.50342 0.962917,-0.90275 z m -5.441022,0.73475 c 0.07394,-0.0739 0.133047,-0.27498 0.133047,-0.45254 0,-0.37478 -0.225367,-0.62742 -0.522184,-0.58538 -0.171492,0.0243 -0.200927,0.0821 -0.223654,0.4391 -0.03823,0.60057 0.290148,0.92146 0.612791,0.59882 z m 1.649932,-0.81158 c -0.06079,-0.1136 -0.07764,-0.35362 -0.04457,-0.635 0.02924,-0.24881 0.02236,-0.45237 -0.01531,-0.45237 -0.170101,0 -0.271672,0.23741 -0.271672,0.635 0,0.43049 0.101849,0.635 0.316245,0.635 0.08955,0 0.09273,-0.038 0.01531,-0.18263 z m 2.339927,-1.92136 c 0.37007,-0.17929 0.952177,-0.50699 1.293572,-0.72822 0.341394,-0.22123 0.970044,-0.58417 1.397,-0.80654 0.426955,-0.22237 1.443033,-0.75221 2.25795,-1.17742 1.513029,-0.78948 2.953291,-1.44917 3.163881,-1.44917 0.0646,0 0.25956,-0.0594 0.43326,-0.13196 0.35224,-0.14717 0.51289,-0.0883 0.26124,0.0957 -0.27028,0.19763 -0.0917,0.22791 0.4106,0.0696 0.55818,-0.17595 0.53169,-0.20539 -0.45898,-0.51011 -0.80568,-0.24782 -1.195591,-0.42849 -1.83345,-0.84954 -0.624121,-0.41198 -1.417827,-0.49132 -3.30336,-0.3302 -0.783672,0.067 -1.672508,0.17899 -1.975191,0.24896 -0.302684,0.07 -0.720576,0.15168 -0.92865,0.18158 -0.84828,0.1219 -2.646856,0.84941 -2.747347,1.11128 -0.0795,0.20719 0.057,1.22902 0.169971,1.27237 0.0598,0.023 0.482596,-0.13745 0.939544,-0.35645 0.848876,-0.40683 2.157275,-0.89957 2.220759,-0.83634 0.0566,0.0564 0.0063,0.0827 -0.839611,0.43944 -1.603084,0.67604 -2.321318,1.01399 -2.35226,1.10682 -0.02075,0.0622 0.09128,0.0513 0.32689,-0.0318 0.490177,-0.17294 0.507961,-0.10061 0.04235,0.17226 -0.213205,0.12494 -0.387646,0.24342 -0.387646,0.26327 0,0.0199 0.09577,0.18083 0.212829,0.35771 0.12437,0.18794 0.264898,0.59375 0.338106,0.97638 0.155373,0.81206 0.357022,1.23839 0.585744,1.23839 0.05497,0 0.402729,-0.1467 0.772799,-0.32599 z m -0.851145,-2.89135 c 0.02878,-0.0466 0.08794,-0.0847 0.131466,-0.0847 0.04353,0 0.469902,-0.17632 0.947503,-0.39182 1.233359,-0.5565 3.027364,-1.17929 3.027364,-1.05094 0,0.0361 -0.409575,0.21051 -0.910166,0.38748 -0.500592,0.17697 -1.395461,0.52491 -1.988599,0.77319 -1.089314,0.45598 -1.302779,0.52081 -1.207568,0.36675 z m -3.226392,2.99875 c 0.07514,-0.1958 0.06281,-0.79741 -0.01634,-0.79741 -0.161397,0 -0.270934,0.22934 -0.270934,0.56726 0,0.37246 0.177956,0.51503 0.287274,0.23015 z m -0.875212,-2.71381 c -0.09574,-0.17862 -0.174063,-0.37295 -0.174063,-0.43185 0,-0.0589 -0.05715,-0.10709 -0.127,-0.10709 -0.203813,0 -0.168533,0.56449 0.04233,0.67734 0.09313,0.0498 0.169334,0.14894 0.169334,0.22021 0,0.0713 0.04763,0.21281 0.105833,0.31452 0.102484,0.17908 0.106653,0.1765 0.131729,-0.0817 0.01481,-0.15249 -0.04862,-0.40568 -0.148166,-0.59141 z m -0.681468,0.43401 c 0.121649,-0.14657 0.06417,-0.66589 -0.09492,-0.85759 -0.05639,-0.0679 -0.182056,-0.11216 -0.279264,-0.0983 -0.142174,0.0203 -0.181803,0.095 -0.202619,0.38185 -0.01423,0.19613 0.01568,0.43425 0.06648,0.52916 0.108781,0.20326 0.360499,0.22538 0.510326,0.0448 z m 1.442364,-1.65222 c 0.244804,-0.13101 0.348461,-0.39076 0.286899,-0.71891 -0.04898,-0.26108 -0.08542,-0.29515 -0.315657,-0.29515 -0.318263,0 -0.652201,0.29219 -0.652201,0.57066 0,0.45982 0.293358,0.65084 0.680959,0.4434 z m 21.208596,-0.13101 c 1.3878,-0.18224 1.99714,-0.25458 3.42578,-0.40668 2.22374,-0.23676 5.04778,-0.62385 7.15434,-0.98066 0.5588,-0.0946 1.26365,-0.17497 1.56633,-0.17849 0.30268,-0.004 0.62449,-0.0354 0.71513,-0.0709 0.15284,-0.0598 0.14977,-0.0687 -0.0423,-0.12265 -0.34048,-0.0956 -2.96953,-0.63159 -3.4033,-0.69382 -0.22119,-0.0317 -0.40217,-0.0948 -0.40217,-0.14019 0,-0.0899 0.23502,-0.0604 1.55139,0.19461 0.45745,0.0886 0.9718,0.16251 1.143,0.16423 0.1712,0.002 0.56682,0.0526 0.87915,0.11305 0.31233,0.0605 0.54821,0.0781 0.52417,0.0392 -0.024,-0.0389 -0.0814,-0.0707 -0.12757,-0.0707 -0.0461,0 -0.54674,-0.23022 -1.11248,-0.51159 -1.6402,-0.81579 -2.75567,-1.28654 -5.01666,-2.11713 -3.14222,-1.15433 -3.95942,-1.42648 -4.45991,-1.48531 -0.59744,-0.0702 -2.05214,0.22668 -2.75337,0.56196 -0.28854,0.13795 -0.66954,0.28493 -0.84667,0.32661 l -0.32205,0.0758 0.32087,0.009 c 0.17648,0.005 0.47024,-0.0677 0.6528,-0.16083 0.48165,-0.24572 0.52346,-0.20695 0.0882,0.0818 -0.4288,0.28447 -0.83721,0.38775 -1.86623,0.47197 -0.44574,0.0365 -0.81635,0.11629 -0.97367,0.20968 -0.18073,0.10729 -0.66917,0.1923 -1.69333,0.29471 -1.47398,0.14739 -1.81319,0.21185 -1.11478,0.21185 0.21731,0 0.39464,0.0286 0.39407,0.0635 -5.8e-4,0.0349 -0.353,0.14813 -0.78317,0.25157 -0.89499,0.21521 -2.31215,0.8765 -2.38756,1.11411 -0.0274,0.0864 -0.12511,0.22523 -0.21705,0.30844 -0.517378,0.46822 0.20677,1.07969 1.94642,1.64357 1.00843,0.32686 1.42313,0.4086 3.4744,0.68485 2.08423,0.28068 2.38163,0.29028 3.68622,0.11896 z m -22.793526,-1.94865 0.231971,-0.47298 -0.277833,0.0596 c -0.152809,0.0328 -0.302964,0.0743 -0.333679,0.0922 -0.09813,0.0574 -0.05024,0.79411 0.05162,0.79411 0.05277,0 0.200339,-0.21284 0.327923,-0.47298 z m 4.88903,0.2155 c 1.275405,-0.35025 2.965,-0.67062 3.775426,-0.71586 0.45825,-0.0256 1.140439,-0.0639 1.515975,-0.0851 1.0441,-0.0591 2.866317,-0.55369 3.701145,-1.00466 0.38284,-0.2068 0.92466,-0.44133 1.20406,-0.52118 0.2794,-0.0799 0.71755,-0.21633 0.97367,-0.30327 0.25611,-0.0869 0.62887,-0.18273 0.82833,-0.21286 0.19947,-0.0301 0.34313,-0.0743 0.31924,-0.0982 -0.11559,-0.1156 -1.41139,-0.27824 -2.61095,-0.32772 -1.738441,-0.0717 -1.871467,-0.21971 -0.32997,-0.3671 l 0.65035,-0.0622 -0.55034,-0.0241 c -0.30268,-0.0132 -0.912278,-0.0154 -1.354661,-0.005 -0.878157,0.0211 -3.495928,-0.1373 -3.767667,-0.22794 -0.22696,-0.0757 0.447199,-0.16938 1.397,-0.1941 0.6801,-0.0177 0.696392,-0.0223 0.296333,-0.0847 -0.232833,-0.0363 -0.728133,-0.0687 -1.100666,-0.072 -0.372534,-0.003 -1.302087,-0.0706 -2.065674,-0.14947 -1.147446,-0.11851 -1.485332,-0.12573 -1.947333,-0.0416 -0.307446,0.056 -0.783153,0.14061 -1.057125,0.18805 -0.273973,0.0474 -0.614535,0.14645 -0.756804,0.22002 l -0.258672,0.13377 0.233673,0.12243 0.233673,0.12243 -0.365869,0.18464 c -0.429578,0.21678 -0.916203,0.8829 -0.916203,1.25415 0,0.21057 0.02746,0.24027 0.1905,0.206 1.120165,-0.23544 1.460527,-0.26956 1.379387,-0.13827 -0.02683,0.0434 -0.2672,0.12581 -0.534164,0.18311 -0.671236,0.14409 -0.819608,0.22531 -0.692156,0.37888 0.05528,0.0666 0.14832,0.12109 0.206767,0.12109 0.05845,0 0.15441,0.058 0.213253,0.12892 0.06176,0.0744 0.173513,0.10779 0.264367,0.079 0.198457,-0.063 0.203285,0.034 0.0092,0.18516 -0.104721,0.0815 -0.110928,0.10351 -0.02117,0.0749 0.06985,-0.0223 0.635449,-0.0986 1.256887,-0.16954 2.057109,-0.23494 2.092819,-0.15304 0.07538,0.1729 l -1.416934,0.22891 v 0.49658 c 0,0.46281 0.01334,0.49657 0.196225,0.49657 0.107925,0 0.4794,-0.0778 0.8255,-0.17282 z m 0.294841,-1.51168 c 0.100805,-0.095 2.067248,-0.51684 2.409511,-0.51684 0.139291,0 0.253256,0.0381 0.253256,0.0847 0,0.0466 -0.01226,0.0847 -0.02726,0.0847 -0.01499,0 -0.589519,0.0952 -1.276729,0.21166 -1.399038,0.23701 -1.474044,0.24451 -1.358783,0.13584 z m -1.27344,-1.36479 c 0.104987,-0.16987 0.687551,-0.35114 1.269207,-0.39493 0.325967,-0.0245 1.507067,0.002 2.624667,0.0586 1.1176,0.0568 2.66713,0.1274 3.443401,0.15692 0.776271,0.0295 1.435548,0.0779 1.46506,0.10761 0.102499,0.10305 -1.827698,0.17605 -2.941532,0.11125 -0.616145,-0.0359 -1.463163,-0.0719 -1.882263,-0.0802 -0.4191,-0.008 -1.1811,-0.0444 -1.693333,-0.0803 -0.737159,-0.0517 -1.051582,-0.0369 -1.508087,0.0708 -0.66922,0.15798 -0.850989,0.16973 -0.77712,0.0502 z m 3.879748,2.67157 c 1.013123,-0.12829 1.248111,-0.21495 0.582868,-0.21495 -0.413519,0 -2.217477,0.30835 -2.302874,0.39363 -0.04143,0.0414 0.09061,0.0277 1.720006,-0.17868 z m 29.012467,-0.12452 c 0,-0.0434 -0.11131,-0.15815 -0.24734,-0.25502 -0.26354,-0.18765 -2.13457,-1.03772 -2.18128,-0.99102 -0.0152,0.0153 0.34397,0.23082 0.79827,0.47903 0.45431,0.24822 0.97841,0.53973 1.16468,0.64781 0.37015,0.21477 0.46567,0.23922 0.46567,0.1192 z m -23.906985,-0.31896 c -0.02527,-0.0253 -0.266763,-0.0155 -0.536651,0.0216 l -0.490705,0.0676 0.450037,0.0611 c 0.247521,0.0336 0.476121,0.0874 0.508,0.11959 0.03188,0.0322 0.07086,-0.005 0.08661,-0.0827 0.01576,-0.0777 0.008,-0.1619 -0.0173,-0.18717 z m 23.864645,-0.33125 c -0.0931,-0.0721 -0.3583,-0.22796 -0.58926,-0.3464 -0.23095,-0.11843 -0.7453,-0.4158 -1.143,-0.6608 -0.39769,-0.24501 -1.28505,-0.77372 -1.9719,-1.17491 -0.68686,-0.4012 -1.79766,-1.05078 -2.46845,-1.44352 -0.67079,-0.39274 -2.33357,-1.24883 -3.69506,-1.90243 -1.3615,-0.6536 -2.89865,-1.42253 -3.41589,-1.70874 -0.94299,-0.52178 -3.18751,-1.54157 -3.2517,-1.47738 -0.0188,0.0188 0.13572,0.21768 0.34344,0.44192 0.20771,0.22424 0.36221,0.45107 0.34334,0.50407 -0.0806,0.22644 2.65668,2.4183 4.03748,3.23293 1.35766,0.80099 1.66606,0.91446 6.94267,2.55458 1.02917,0.3199 2.21271,0.82169 4.191,1.7769 0.71993,0.34762 0.95425,0.41811 0.67733,0.20378 z m 1.26557,-1.07005 c -0.032,-0.10478 -0.11564,-0.32385 -0.18587,-0.48684 -0.0702,-0.16298 -0.13956,-0.38491 -0.15409,-0.49318 -0.0145,-0.10826 -0.0701,-0.24947 -0.12346,-0.31379 -0.0534,-0.0643 -0.0781,-0.14766 -0.0549,-0.18521 0.0779,-0.12607 -0.14958,-0.4209 -1.03918,-1.34681 -0.87179,-0.90737 -0.87868,-0.91236 -0.47662,-0.34528 0.22437,0.31647 0.38119,0.60216 0.34848,0.63487 -0.0327,0.0327 -0.11476,-0.0167 -0.18234,-0.10973 -0.65516,-0.90223 -1.96079,-2.38633 -3.76137,-4.27553 -1.88749,-1.98038 -3.66896,-4.01825 -3.35555,-3.83848 0.52011,0.29832 5.20686,4.93529 6.23301,6.16681 0.38802,0.46567 0.91306,1.0715 1.16676,1.3463 l 0.46129,0.49962 -0.34498,-0.68612 c -0.86833,-1.72702 -4.1063,-5.97748 -6.01675,-7.89815 -0.99983,-1.00517 -2.21912,-1.8193 -4.39384,-2.93377 -0.86801,-0.44482 -1.82848,-0.95331 -2.1344,-1.12997 -0.30592,-0.17665 -1.10602,-0.58766 -1.77801,-0.91335 -0.67198,-0.32568 -1.43133,-0.73216 -1.68745,-0.90327 -0.62502,-0.41757 -0.90252,-0.55311 -1.94733,-0.95112 -1.28611,-0.48994 -1.2874,-0.49015 -0.59267,-0.0979 0.34925,0.19718 1.016,0.5868 1.48167,0.86582 0.46567,0.27903 1.17052,0.68702 1.56633,0.90666 0.39582,0.21963 1.15782,0.65751 1.69334,0.97305 0.53552,0.31555 1.21144,0.71139 1.50205,0.87964 0.29061,0.16826 0.52873,0.3333 0.52916,0.36677 0.001,0.10759 -0.0347,0.0896 -3.89388,-1.94409 -0.48895,-0.25766 -0.98425,-0.53282 -1.10067,-0.61146 -0.7516,-0.50773 -3.2832,-1.69294 -4.52967,-2.12063 -0.37253,-0.12783 -1.12436,-0.3195 -1.67074,-0.42594 l -0.993414,-0.19352 -0.215555,0.23259 c -0.189568,0.20455 -0.256112,0.22573 -0.551966,0.17575 -0.302079,-0.051 -0.330717,-0.041 -0.280618,0.0988 0.08684,0.24227 0.640967,1.12329 0.875965,1.39274 0.236329,0.27097 3.412288,2.69096 4.984308,3.7979 1.04977,0.7392 1.27548,0.95669 0.5472,0.52728 -1.14187,-0.67327 -3.2659,-2.20816 -5.065841,-3.66073 -1.084683,-0.87535 -1.481283,-1.25688 -1.199426,-1.15385 0.188804,0.069 0.182042,0.0527 -0.230728,-0.5572 -0.199142,-0.29424 -0.390568,-0.48683 -0.483887,-0.48683 -0.08492,0 -0.289076,0.11825 -0.45368,0.26277 -0.278268,0.24432 -0.299279,0.2974 -0.299279,0.75595 0,0.50267 0.0536,0.60931 0.443553,0.88245 0.269354,0.18866 0.136096,0.23679 -0.230968,0.0834 l -0.321415,-0.13429 0.05146,0.31708 c 0.03284,0.2024 0.159702,0.42794 0.350748,0.62359 0.346362,0.35471 0.37674,0.461 0.108792,0.38066 -0.381496,-0.11439 0.722111,0.8818 1.751264,1.5808 0.561863,0.38162 1.345417,0.91385 1.741237,1.18274 0.74203,0.50408 0.92173,0.58859 3.95848,1.86149 1.66545,0.69809 2.57251,1.14974 3.87319,1.92856 0.2794,0.1673 1.82245,0.96495 3.429,1.77256 3.13695,1.57694 4.22597,2.19035 5.29166,2.9806 0.37254,0.27624 1.39233,0.98235 2.2662,1.56914 1.06499,0.7151 1.91644,1.36739 2.58234,1.9783 0.9491,0.87073 1.37446,1.1947 1.37446,1.04683 0,-0.0821 -1.15391,-1.15009 -2.37066,-2.1941 -1.61498,-1.38571 -1.4756,-1.41758 0.3175,-0.0726 0.71014,0.53267 1.29063,0.94117 1.28999,0.90777 -6.5e-4,-0.0334 -0.2102,-0.3066 -0.46567,-0.60712 -0.25547,-0.30052 -0.46449,-0.57675 -0.46449,-0.61383 0,-0.14564 0.15935,-0.0544 0.36284,0.20773 0.11748,0.15134 0.59567,0.66899 1.06265,1.15033 l 0.84905,0.87515 -0.12027,-0.45182 c -0.15048,-0.56534 -0.15095,-0.62336 -0.004,-0.50151 0.065,0.0539 0.14323,0.23957 0.17389,0.41253 0.0517,0.29178 0.45463,1.20349 0.53185,1.20349 0.0188,0 0.008,-0.0857 -0.024,-0.1905 z M 98.964497,164.57778 c -0.774073,-0.53325 -1.361492,-1.01271 -1.361492,-1.11127 0,-0.0417 0.428625,0.23468 0.9525,0.61426 1.092754,0.79177 1.125629,0.81879 1.067194,0.87723 -0.02384,0.0238 -0.320034,-0.14726 -0.658202,-0.38022 z m -11.608096,14.90235 c 0.15546,-0.5378 0.128483,-0.59266 -0.291417,-0.59266 -0.454615,0 -0.540675,0.12222 -0.488568,0.69386 0.02568,0.2817 0.07703,0.40631 0.176246,0.42767 0.221233,0.0476 0.510285,-0.20557 0.603739,-0.52887 z m 37.763279,0.44337 c 0,-0.0821 -0.13437,-0.34881 -0.29859,-0.59266 -0.44721,-0.66408 -0.4574,-0.59651 -0.0512,0.33979 0.17544,0.40443 0.34982,0.53048 0.34982,0.25287 z m 0.97133,-1.94118 c -0.062,-0.24172 -0.13768,-0.62272 -0.16811,-0.84667 -0.24925,-1.83461 -1.08449,-5.02502 -2.34046,-8.93999 -0.85727,-2.67218 -1.67999,-4.62648 -2.4872,-5.9081 -1.01067,-1.60466 -3.23497,-4.45017 -4.18634,-5.35552 -0.78349,-0.7456 -0.95984,-0.97096 -0.50802,-0.64924 0.92321,0.65738 2.84866,2.78996 4.08853,4.52833 0.64719,0.9074 1.64413,2.59827 1.95985,3.32403 0.0863,0.19839 0.17101,0.3466 0.18824,0.32937 0.0754,-0.0754 -1.01015,-2.72225 -1.60257,-3.9074 -0.77224,-1.54488 -3.70801,-4.61526 -4.77337,-4.99224 -0.22709,-0.0804 -0.71768,-0.29056 -1.09022,-0.46712 -0.71861,-0.34059 -1.74941,-0.62804 -2.08183,-0.58054 -0.10996,0.0157 -0.24795,0.12382 -0.30663,0.24024 -0.2059,0.40842 -0.0734,2.35658 0.22137,3.25485 0.0926,0.28205 0.23219,0.79856 0.31032,1.14781 0.39774,1.77813 1.57716,4.76598 2.25592,5.715 0.16653,0.23284 0.53301,0.84244 0.81439,1.35467 0.59739,1.08748 1.42356,2.28379 2.2578,3.2693 2.08486,2.46292 3.25643,4.02646 4.22826,5.6429 1.19503,1.9877 2.17188,3.51188 2.21996,3.4638 0.0403,-0.0403 -0.0331,-0.34452 -0.39191,-1.62333 -0.42086,-1.50006 -0.99512,-3.80275 -1.26688,-5.08 -0.41812,-1.96515 -1.32272,-5.35854 -1.72758,-6.48058 -0.38116,-1.05637 -0.55847,-1.68725 -0.40338,-1.43527 0.17072,0.27739 1.11433,2.7239 1.3091,3.39413 0.11375,0.39144 0.3585,1.20702 0.54388,1.81238 0.18538,0.60537 0.45761,1.72932 0.60496,2.49767 0.41413,2.15956 0.87142,4.09749 0.98894,4.191 0.11914,0.0948 0.28698,0.91937 0.28698,1.40989 0,0.23978 0.0298,0.30902 0.11844,0.27501 0.0866,-0.0332 0.17148,0.13255 0.31566,0.61649 0.2387,0.80114 0.3015,0.63841 0.12096,-0.31337 -0.0724,-0.38192 -0.13173,-0.76863 -0.13173,-0.85937 0,-0.32128 0.15931,-0.0606 0.25542,0.41799 0.0536,0.26695 0.1585,0.75206 0.23308,1.07803 l 0.1356,0.59266 0.0607,-0.33866 c 0.0371,-0.20688 0.0168,-0.50969 -0.0521,-0.77815 z m -4.08391,-10.94819 c -0.54114,-1.35138 -1.94859,-4.1474 -2.76457,-5.49207 -0.45838,-0.75538 -0.56957,-1.03346 -0.28398,-0.71028 0.82509,0.93372 3.32294,5.90525 3.17134,6.31199 -0.0209,0.0561 -0.0762,0.007 -0.12279,-0.10964 z m -1.10895,-4.06918 c -0.10944,-0.28226 -0.17699,-0.53519 -0.1501,-0.56208 0.0269,-0.0269 0.0835,0.0421 0.12586,0.15335 0.0423,0.11124 0.13865,0.34977 0.21404,0.53009 0.15682,0.37511 0.15994,0.39182 0.0731,0.39182 -0.0352,0 -0.15348,-0.23093 -0.26293,-0.51318 z m 0.45386,15.62027 c -0.50386,-0.41953 -1.98511,-1.31923 -2.07773,-1.26199 -0.10637,0.0657 1.03311,0.85763 1.77519,1.23369 0.57992,0.29387 0.62675,0.29825 0.30254,0.0283 z m -14.224,-0.3857 c 0.61619,-0.11322 1.18204,-0.28362 1.67228,-0.50359 0.40752,-0.18285 0.8003,-0.33246 0.87283,-0.33246 0.0725,0 0.11167,-0.0327 0.087,-0.0727 -0.0673,-0.10883 -1.1644,-0.263 -2.13987,-0.3007 -0.47435,-0.0183 -0.90297,-0.0584 -0.9525,-0.089 -0.13667,-0.0845 -0.10784,-0.19916 0.0581,-0.23111 0.14432,-0.0278 -2.01032,-0.69338 -3.11148,-0.96117 -0.30269,-0.0736 -1.14089,-0.29982 -1.86267,-0.50271 -4.822046,-1.3554 -6.05854,-1.6529 -6.857999,-1.65002 -0.693526,0.002 -2.116667,0.75375 -2.116667,1.11736 0,0.088 -0.03505,0.13832 -0.07789,0.11184 -0.112711,-0.0697 -0.415846,0.34807 -0.512167,0.70578 -0.04545,0.16877 -0.193292,0.43942 -0.328545,0.60143 l -0.245917,0.29457 0.391758,0.10615 c 0.763275,0.20682 1.678352,0.36893 3.016425,0.53438 0.745067,0.0921 1.754717,0.24248 2.243667,0.33413 0.48895,0.0917 1.6891,0.28345 2.667,0.4262 0.977895,0.14275 2.273295,0.35111 2.878665,0.46302 0.93138,0.17217 1.27647,0.19702 2.24367,0.16156 0.62865,-0.023 1.5621,-0.11891 2.07433,-0.21302 z m 20.53871,-0.62874 c 0.049,-0.0303 0.10995,0.025 0.13553,0.12284 0.0256,0.0978 0.0992,0.17785 0.16363,0.17785 0.0935,0 0.11713,-0.2137 0.11713,-1.05834 0,-0.58208 0.0328,-1.05833 0.0729,-1.05833 0.0751,0 0.17711,0.66122 0.18297,1.18533 0.007,0.64011 0.26131,-0.33151 0.37651,-1.43933 0.43116,-4.1464 0.77377,-6.98819 0.9748,-8.08567 0.58004,-3.16645 0.84833,-4.66093 0.84826,-4.72516 -4e-5,-0.0377 0.0329,-0.0481 0.0732,-0.0232 0.0403,0.0249 0.0596,0.13195 0.0428,0.23783 -0.0168,0.10589 -0.22243,1.29089 -0.45695,2.63335 -0.23452,1.34245 -0.46257,2.8093 -0.50678,3.25966 -0.0442,0.45037 -0.19313,1.77135 -0.33094,2.93551 -0.13782,1.16417 -0.27375,2.45957 -0.30208,2.87867 -0.0283,0.4191 -0.0681,0.89535 -0.0884,1.05833 -0.0636,0.51165 0.11197,-0.009 0.22173,-0.65744 0.0531,-0.31362 0.13031,-0.60642 0.17159,-0.65066 0.10572,-0.11329 0.0946,0.12824 -0.0446,0.96944 -0.15372,0.92907 -0.22468,1.524 -0.18178,1.524 0.0793,0 0.91866,-2.28402 1.40014,-3.81 0.87706,-2.77972 2.01646,-7.86383 2.42876,-10.83734 0.0807,-0.58208 0.14871,-1.61078 0.15111,-2.286 0.006,-1.58017 -0.12923,-2.10634 -0.7997,-3.12009 -0.58271,-0.88107 -0.77901,-1.06884 -1.24735,-1.19313 -0.25079,-0.0666 -0.43857,-0.19519 -0.6267,-0.42929 -0.22616,-0.28142 -0.30338,-0.3256 -0.48858,-0.27951 -0.2509,0.0624 -0.36263,0.18367 -0.60982,0.66169 -0.33554,0.64885 -0.59248,1.42685 -0.79379,2.4035 -0.37571,1.82277 -0.54713,2.58815 -0.77013,3.4385 -0.19472,0.74256 -0.23217,1.11214 -0.30456,3.00567 -0.0454,1.18745 -0.0658,4.15925 -0.0453,6.604 0.0205,2.44475 0.003,4.80695 -0.0382,5.24933 -0.0415,0.44238 -0.0492,1.05198 -0.017,1.35467 0.0535,0.5044 0.0644,0.52772 0.13048,0.27933 0.0397,-0.14905 0.11216,-0.29576 0.16113,-0.32602 z m 2.83969,-6.21865 c 0.0324,-0.11641 0.16377,-0.62421 0.29192,-1.12843 0.23623,-0.9295 0.33268,-1.1695 0.33268,-0.82778 0,0.25433 -0.41431,1.69175 -0.56384,1.95621 l -0.11968,0.21167 z m 0.80818,-3.78883 c 0.20652,-1.15891 0.31,-1.54517 0.41396,-1.54517 0.0457,0 0.0635,0.0857 0.0396,0.1905 -0.0904,0.39688 -0.46783,2.19528 -0.46783,2.22928 0,0.0196 -0.0333,0.0356 -0.074,0.0356 -0.0407,0 -9.9e-4,-0.40958 0.0882,-0.91017 z m 2.38855,10.23478 c 0.0865,-0.0956 0.17691,-0.34834 0.20096,-0.56174 0.0366,-0.32454 0.0118,-0.42203 -0.15177,-0.5961 -0.30734,-0.32715 -0.44895,-0.2583 -0.20577,0.10004 0.11501,0.16948 0.20912,0.3575 0.20912,0.41782 0,0.19968 -0.17789,0.58338 -0.36548,0.78836 -0.17241,0.18839 -0.1734,0.19604 -0.0146,0.11367 0.0937,-0.0486 0.24104,-0.16649 0.32752,-0.26205 z m -14.51013,0.21237 c 0,-0.0511 -0.91891,-0.64378 -1.03455,-0.66728 -0.0597,-0.0121 -0.1275,-0.0419 -0.15078,-0.0661 -0.0233,-0.0242 -0.15664,-0.0938 -0.29634,-0.15464 -0.4254,-0.18521 -0.12621,0.0308 0.67378,0.4864 0.76384,0.43503 0.80789,0.45693 0.80789,0.40161 z m -0.078,-0.84003 c -0.006,-0.0635 -2.11799,-1.68517 -2.80198,-2.15168 -0.53987,-0.36821 -2.33136,-1.30071 -3.7027,-1.92731 -0.64038,-0.29261 -1.54533,-0.71089 -2.011,-0.92952 -0.46566,-0.21862 -0.78951,-0.34254 -0.71966,-0.27536 0.27989,0.2692 2.58,1.65279 4.55496,2.73997 1.15025,0.63319 2.64382,1.48412 3.31904,1.89095 1.15602,0.69653 1.37586,0.80197 1.36134,0.65295 z m -8.5273,-0.8093 c -1.4967,-0.91615 -1.55056,-0.95407 -3.08631,-2.17265 -1.33007,-1.05538 -2.42939,-1.84901 -2.87887,-2.07831 -0.18951,-0.0967 -0.62888,-0.24851 -0.97637,-0.33738 -0.34749,-0.0889 -0.93693,-0.25798 -1.30986,-0.37578 -0.55465,-0.17522 -0.84798,-0.2142 -1.61179,-0.2142 -0.822008,0 -1.020213,0.0305 -1.656465,0.25509 -0.461981,0.16306 -0.78262,0.33123 -0.888728,0.46613 -0.0913,0.11606 -0.219241,0.26427 -0.284317,0.32935 -0.101315,0.10131 -0.09975,0.12544 0.0109,0.1679 0.07363,0.0283 0.106969,0.0136 0.07749,-0.0341 -0.06614,-0.10701 0.130837,-0.10637 0.296933,9.7e-4 0.105477,0.0682 0.0983,0.0829 -0.04233,0.0867 -0.123864,0.003 -0.0957,0.0366 0.104896,0.12381 0.191073,0.0831 0.25893,0.15908 0.223775,0.25069 -0.06165,0.16066 -0.03222,0.16086 -0.599271,-0.004 -0.320532,-0.0932 -0.493292,-0.10817 -0.55344,-0.048 -0.256064,0.25606 0.211299,0.45733 2.771377,1.19347 0.65193,0.18747 1.62348,0.49921 2.159,0.69277 0.53551,0.19356 1.56421,0.55239 2.286,0.7974 0.72178,0.24502 1.59808,0.55992 1.94733,0.69978 0.34925,0.13985 1.03505,0.31929 1.524,0.39875 0.48895,0.0795 1.21285,0.22088 1.60866,0.31427 0.61268,0.14456 1.40748,0.26307 2.07164,0.30889 0.0916,0.006 -0.44577,-0.36336 -1.19426,-0.82152 z m -7.46367,-2.38977 c -0.40495,-0.0798 -3.172457,-0.99684 -3.700711,-1.22631 -0.672367,-0.29207 -0.09955,-0.21593 0.870521,0.11571 0.54568,0.18655 1.43029,0.47684 1.96581,0.64508 0.53552,0.16825 1.06892,0.36074 1.18533,0.42777 0.23659,0.13621 0.20046,0.14046 -0.32095,0.0377 z m -13.842762,2.66075 c 0.361372,-0.20605 0.701717,-0.76537 0.701717,-1.15321 0,-0.14862 -0.04135,-0.16417 -0.332704,-0.12509 -0.182988,0.0245 -0.462809,0.14386 -0.621826,0.26514 -0.159016,0.12129 -0.329072,0.22053 -0.377903,0.22053 -0.131181,0 -0.191567,0.2162 -0.191567,0.68587 0,0.41266 0.003,0.41733 0.232834,0.36406 0.128058,-0.0297 0.39331,-0.14546 0.589449,-0.2573 z m 26.732492,-0.43956 c -0.13031,-0.11382 -1.24371,-0.89372 -1.51977,-1.06455 -0.50092,-0.30997 -0.0498,0.0558 0.72779,0.59006 0.70941,0.48743 1.01944,0.67318 0.79198,0.47449 z m -14.05044,-1.29631 c -0.50663,-0.20584 -1.989285,-0.60937 -2.042704,-0.55595 -0.02075,0.0207 0.201764,0.0985 0.494484,0.17279 0.29272,0.0743 0.79892,0.22882 1.12488,0.34342 0.7165,0.25191 1.01434,0.27987 0.42334,0.0397 z m 24.97346,-6.4016 -0.0109,-6.4135 -0.31198,-0.83984 c -0.17158,-0.46191 -0.34405,-0.88101 -0.38325,-0.93133 -0.0392,-0.0503 -0.15012,-0.32009 -0.24648,-0.59949 -0.30822,-0.89367 -0.76679,-2.06646 -1.07438,-2.74771 -0.16435,-0.36398 -0.33737,-0.8651 -0.38449,-1.11359 -0.13069,-0.68911 -0.58102,-1.86022 -0.84492,-2.19726 -0.12973,-0.16567 -0.39552,-0.58669 -0.59066,-0.93559 -0.33533,-0.59957 -0.38197,-0.64517 -0.85026,-0.83117 -0.53994,-0.21447 -0.77727,-0.19793 -1.23828,0.0863 -0.34197,0.21081 -0.53828,0.6298 -0.5378,1.14786 2.9e-4,0.31007 0.0934,0.60737 0.38062,1.21487 0.20913,0.44239 0.38099,0.86149 0.38191,0.93134 0.001,0.11114 0.0115,0.11145 0.0804,0.002 0.0433,-0.0685 0.0924,-0.1066 0.10899,-0.0847 0.33569,0.44288 1.28445,2.96747 2.30591,6.13588 0.40535,1.2573 0.92154,2.8575 1.1471,3.556 0.43618,1.35075 1.41814,5.24933 1.64207,6.51934 0.16655,0.94457 0.38724,2.76466 0.38724,3.19364 0,0.17601 0.0113,0.32002 0.025,0.32002 0.0138,0 0.0201,-2.88607 0.0141,-6.4135 z m -2.57467,-8.17979 c -0.34214,-0.89988 -0.65728,-2.01151 -0.53137,-1.87437 0.10003,0.10896 0.70355,2.01058 0.65387,2.06026 -0.0206,0.0207 -0.0758,-0.063 -0.1225,-0.18589 z m -1.27519,-4.04852 c -0.14932,-0.38718 -0.34358,-0.80522 -0.43171,-0.92898 -0.18147,-0.25486 -0.21312,-0.52695 -0.0552,-0.4743 0.18392,0.0613 0.43269,0.58399 0.63048,1.32468 0.10554,0.3952 0.17748,0.73295 0.15987,0.75056 -0.0176,0.0176 -0.15417,-0.28478 -0.30348,-0.67196 z m -0.91243,-2.39946 c -0.29443,-0.59708 -0.31789,-0.67165 -0.18561,-0.58989 0.0804,0.0497 0.59078,0.99742 0.59078,1.09708 0,0.0246 -0.0299,0.0447 -0.0665,0.0447 -0.0366,0 -0.18897,-0.24837 -0.33867,-0.55194 z m -31.433953,19.90301 c 0.155042,-0.16504 0.183526,-0.26491 0.140682,-0.49329 -0.134836,-0.71874 -0.568697,-0.71096 -0.937485,0.0168 -0.31191,0.61553 -0.292655,0.68342 0.193826,0.68342 0.323849,0 0.448888,-0.0429 0.602977,-0.20693 z m 6.015782,-1.22204 c 0,-0.24314 -0.161891,-0.32513 -0.762,-0.3859 l -0.550334,-0.0557 0.338667,0.16406 c 0.186267,0.0902 0.414867,0.22416 0.508,0.29761 0.234598,0.18502 0.465667,0.17508 0.465667,-0.02 z m -2.694713,-0.30442 c 0.223055,-0.0909 0.265594,-0.30761 0.0704,-0.35865 -0.213589,-0.0559 -0.212698,-0.11644 0.0058,-0.39421 l 0.175479,-0.22308 h -0.38065 c -0.516298,0 -0.92255,0.32495 -0.884993,0.7079 0.04235,0.43183 0.387795,0.52315 1.013973,0.26804 z m 2.263339,-0.56249 c 0.206639,-0.072 0.265093,-0.13756 0.245467,-0.27517 -0.01417,-0.0993 -0.05433,-0.17109 -0.08926,-0.15945 -0.03493,0.0116 -0.208618,0.0212 -0.385984,0.0212 -0.386986,0 -0.658521,0.17177 -0.58293,0.36875 0.06274,0.16349 0.416186,0.18292 0.812707,0.0447 z m 19.282835,-4.97095 c -0.15809,-0.17469 -0.18106,-0.32532 -0.056,-0.36728 0.0463,-0.0155 -0.377,-0.96167 -0.94059,-2.10256 -0.56359,-1.14088 -1.11197,-2.26483 -1.21862,-2.49766 -0.2722,-0.59424 -1.11029,-1.60627 -1.79979,-2.17334 -0.7421,-0.61032 -2.65475,-1.85603 -4.31591,-2.81095 -3.10725,-1.78622 -5.20196,-2.49385 -6.79521,-2.29554 -0.600538,0.0747 -0.749715,0.16008 -0.897302,0.51331 -0.06653,0.15923 -0.159825,0.28952 -0.207315,0.28952 -0.04749,0 0.16257,0.25637 0.466802,0.56971 0.304235,0.31334 0.553145,0.62169 0.553145,0.68522 0,0.11321 -0.637031,-0.37333 -0.965617,-0.73751 -0.230038,-0.25495 -0.379645,-0.22193 -0.520365,0.11486 -0.259252,0.62047 -0.06691,1.2887 0.64746,2.24939 0.433106,0.58244 1.647992,1.69391 2.219092,2.0302 0.38464,0.22649 3.8854,1.61905 3.93797,1.56648 0.024,-0.024 0.004,-0.0437 -0.0442,-0.0437 -0.2646,0 -1.55114,-1.00062 -2.60113,-2.02308 -0.65533,-0.63814 -1.62013,-1.53321 -2.14401,-1.98903 -0.85037,-0.73992 -1.014179,-0.89855 -0.927849,-0.89855 0.03818,0 1.738699,1.3236 2.616709,2.03672 2.31254,1.87823 2.86718,2.27366 4.59767,3.27785 0.55881,0.32428 1.48911,0.82674 2.06733,1.1166 1.3046,0.65397 3.40363,1.85479 5.15496,2.94905 0.47977,0.29978 0.89388,0.52347 0.92024,0.49711 0.0264,-0.0264 0.10327,0.007 0.17091,0.075 0.17821,0.17821 0.24735,0.15123 0.0817,-0.0319 z m -8.06707,-8.2122 c -0.59953,-0.36429 -1.83154,-1.12963 -2.73781,-1.70075 -0.90626,-0.57111 -1.7895,-1.11071 -1.96275,-1.1991 -0.17326,-0.0884 -0.34034,-0.20168 -0.3713,-0.25178 -0.23454,-0.37949 5.82753,3.20751 6.22007,3.68049 0.21354,0.2573 -0.0673,0.12794 -1.14821,-0.52886 z m -5.53506,-2.6054 c -0.48895,-0.25802 -0.99731,-0.52648 -1.1297,-0.59659 -0.13239,-0.0701 -0.22211,-0.14606 -0.19938,-0.16879 0.0418,-0.0418 1.38895,0.61404 2.09108,1.01794 0.71675,0.4123 0.12839,0.21729 -0.762,-0.25256 z m -7.871902,6.94525 c 0.145048,-0.3815 0.09684,-0.82227 -0.119505,-1.09266 -0.174015,-0.21749 -0.219767,-0.23613 -0.338246,-0.1378 -0.256103,0.21254 -0.150394,1.18171 0.15083,1.38284 0.157357,0.10507 0.221063,0.0734 0.306921,-0.15238 z m 33.448062,-3.82565 c 0.0588,-0.71015 0.13847,-1.29117 0.17704,-1.29117 0.0386,0 0.0726,0.16192 0.0755,0.35983 0.005,0.31829 0.0148,0.33623 0.0871,0.15544 0.0449,-0.11242 0.10149,-0.77782 0.12567,-1.47866 0.0242,-0.70084 0.0612,-1.29149 0.0823,-1.31254 0.0842,-0.0842 0.12354,0.0748 0.18748,0.75784 l 0.0668,0.71376 0.152,-0.93134 c 0.0836,-0.51223 0.19679,-1.15993 0.25152,-1.43933 0.14365,-0.73335 0.11434,-2.41244 -0.0561,-3.21285 -0.24807,-1.16508 -1.3783,-3.03683 -2.06163,-3.41422 l -0.34837,-0.1924 -0.40167,0.21357 c -0.22091,0.11746 -0.45231,0.21357 -0.5142,0.21357 -0.0693,0 0.0174,0.201 0.22542,0.52289 0.33321,0.51555 0.5938,1.20363 0.58534,1.54564 -0.002,0.0972 -0.18847,-0.18269 -0.41826,-0.6292 -0.22766,-0.44238 -0.50394,-0.91372 -0.61394,-1.04742 l -0.20001,-0.24309 -0.34721,0.17713 c -0.39724,0.20266 -0.75886,0.60912 -1.03648,1.165 -0.14858,0.29749 -0.19014,0.51826 -0.18322,0.97319 0.01,0.6385 0.1051,0.95438 0.72596,2.40419 0.82182,1.91909 1.22802,2.98791 1.44798,3.81 0.12459,0.46567 0.55533,1.67735 0.95719,2.69264 l 0.73066,1.84596 0.0981,-0.53363 c 0.054,-0.2935 0.14623,-1.11466 0.20503,-1.8248 z m 0.21982,-3.94978 c -0.0666,-0.77709 -0.0758,-1.70607 -0.0163,-1.6466 0.0986,0.0986 0.22072,1.75385 0.1495,2.02575 -0.0686,0.26201 -0.0814,0.22567 -0.13321,-0.37915 z m -0.21901,-2.52832 c -0.21211,-0.55789 -0.52383,-1.68802 -0.49095,-1.77993 0.0202,-0.0565 0.17955,0.34701 0.35406,0.89678 0.17452,0.54978 0.29511,1.02179 0.26798,1.04891 -0.0271,0.0271 -0.0861,-0.0475 -0.13109,-0.16576 z m -33.281635,7.0888 c 0,-0.10863 -0.04102,-0.30477 -0.09116,-0.43586 l -0.09117,-0.23834 -0.214075,0.24791 c -0.187769,0.21744 -0.207404,0.2982 -0.159782,0.65719 0.08974,0.67653 0.131596,0.71412 0.35573,0.31952 0.110252,-0.1941 0.200458,-0.44179 0.200457,-0.55042 z m 18.372675,-0.24195 c 0,-0.065 -0.0738,-0.36022 -0.16403,-0.65617 -0.0902,-0.29595 -0.24338,-0.86069 -0.34035,-1.25498 -0.13506,-0.54913 -0.35634,-1.04448 -0.94556,-2.11667 -1.57847,-2.87234 -2.65167,-4.00513 -4.77307,-5.03814 -1.44515,-0.70372 -2.2166,-0.88607 -2.30578,-0.54505 -0.041,0.15688 -0.0905,0.17135 -0.43658,0.12778 -1.27839,-0.16093 -1.31104,-0.16027 -1.55447,0.0319 -0.12806,0.10106 -0.23284,0.2165 -0.23284,0.25654 0,0.04 0.2286,0.19846 0.508,0.35206 0.2794,0.15361 0.508,0.30858 0.508,0.3444 0,0.0852 0.0242,0.0903 -0.48774,-0.10425 -0.83054,-0.31567 -0.93428,-0.18109 -0.22396,0.29054 0.58464,0.38818 0.53791,0.49392 -0.0762,0.1724 -0.59961,-0.31394 -0.76361,-0.25554 -0.72282,0.25737 0.0166,0.20922 10e-4,0.3804 -0.0339,0.3804 -0.16353,0 -0.0318,0.24936 0.29572,0.55986 0.99788,0.94597 1.83067,1.50038 3.6195,2.40963 1.63357,0.83032 3.22684,1.86999 5.50334,3.59112 0.87864,0.66428 1.30761,0.92388 1.50035,0.90792 0.10614,-0.009 0.19298,0.0217 0.19298,0.0678 0,0.0461 0.0381,0.0837 0.0847,0.0837 0.0466,0 0.0847,-0.0531 0.0847,-0.11808 z m -5.26284,-4.80125 c -0.52809,-0.37729 -1.03637,-0.76493 -1.1295,-0.86141 l -0.16933,-0.17542 0.254,0.15321 c 0.37943,0.22887 1.50172,1.03686 1.82938,1.31706 0.52158,0.44603 0.19011,0.26291 -0.78455,-0.43344 z m -2.29523,-0.61782 c -0.74745,-0.42596 -2.60194,-1.74044 -2.60194,-1.84429 0,-0.12634 0.096,-0.0737 0.91897,0.50443 0.44918,0.31551 1.16889,0.79501 1.59934,1.06557 0.74148,0.46604 0.9672,0.64677 0.8078,0.64677 -0.0388,0 -0.36468,-0.16762 -0.72417,-0.37248 z m 0.31906,-2.27024 c -0.32596,-0.23171 -1.01176,-0.6316 -1.524,-0.88863 -1.04296,-0.52336 -1.02339,-0.51114 -0.9447,-0.58984 0.0315,-0.0314 0.4515,0.13882 0.93344,0.37838 0.72572,0.36074 1.12172,0.62242 2.16321,1.42948 0.0194,0.015 0.0194,0.0419 0,0.0596 -0.0194,0.0178 -0.30198,-0.1573 -0.62795,-0.38901 z m -8.000998,5.95174 c 0,-0.0893 -0.07485,-0.33692 -0.166324,-0.55033 -0.119013,-0.27765 -0.21489,-0.38802 -0.337054,-0.38802 -0.371937,0 -0.285037,0.81037 0.107238,1.00002 0.280074,0.1354 0.39614,0.11734 0.39614,-0.0617 z m 37.312938,-2.54457 c 0.0189,-0.0219 0.0682,0.0151 0.10973,0.0822 0.0415,0.0671 0.1033,0.0943 0.13733,0.0602 0.0752,-0.0752 0.21371,-2.02351 0.14843,-2.08846 -0.10128,-0.10078 -0.36442,0.36498 -0.41847,0.74071 -0.0315,0.21919 -0.11241,0.46152 -0.17972,0.53853 -0.0949,0.10854 -0.12757,0.47964 -0.14547,1.651 l -0.0231,1.51099 0.16849,-1.22767 c 0.0927,-0.67521 0.18392,-1.24561 0.20277,-1.26755 z m -40.082538,2.11472 c 0.03677,-0.14061 0.09007,-0.15964 0.318914,-0.11387 0.321138,0.0642 0.503353,-0.11263 0.503353,-0.48855 0,-0.4086 -0.07815,-0.49875 -0.432392,-0.49875 -0.467357,0 -0.668275,0.22486 -0.668275,0.74789 0,0.22507 0.0254,0.43462 0.05644,0.46567 0.09971,0.0997 0.176683,0.0607 0.221956,-0.11239 z m 25.833418,-1.59448 c -0.26643,-0.68289 -0.45781,-0.96872 -0.45781,-0.68374 0,0.11574 0.69482,1.52645 0.73302,1.48825 0.0153,-0.0153 -0.10854,-0.37733 -0.27521,-0.80451 z m -23.017442,-1.33938 c 0.398078,-0.42954 0.188565,-1.04597 -0.355501,-1.04597 -0.405456,0 -0.559754,0.43013 -0.359926,1.00336 0.118843,0.34091 0.422221,0.35898 0.715427,0.0426 z m -2.338521,-0.33773 c 0.22418,-0.28499 0.228104,-0.71904 0.0083,-0.91796 -0.162025,-0.14663 -0.169858,-0.14426 -0.254,0.0771 -0.108267,0.28477 -0.114344,1.064 -0.0083,1.064 0.04319,0 0.157487,-0.10039 0.254,-0.22309 z m 23.451153,-0.31164 c -0.0423,-0.14767 -0.077,-0.27826 -0.077,-0.29021 0,-0.012 0.0762,-0.0217 0.16933,-0.0217 0.21655,0 0.21745,0.006 -0.0949,-0.61285 -0.16253,-0.32197 -0.2283,-0.53532 -0.17094,-0.55444 0.0992,-0.0331 -0.0845,-0.44828 -0.43191,-0.97627 -0.10521,-0.15991 -0.23395,-0.36216 -0.28608,-0.44943 -0.0757,-0.12665 -0.0866,-0.0722 -0.0543,0.27002 0.0369,0.39024 0.0207,0.44169 -0.18037,0.57346 -0.27783,0.18203 -0.28129,0.40959 -0.0152,0.99814 0.44308,0.98001 1.36325,1.83732 1.14127,1.06331 z m 15.09966,-0.31076 c 0.18726,-0.11049 0.37941,-0.35038 0.56026,-0.69947 0.29481,-0.56906 0.29116,-0.72278 -0.025,-1.04968 -0.0966,-0.0999 -0.28677,-0.29992 -0.42259,-0.4445 -0.13581,-0.14457 -0.27449,-0.26286 -0.30817,-0.26286 -0.0337,0 -0.15083,0.18097 -0.26034,0.40217 -0.2443,0.49345 -0.26701,1.35854 -0.0461,1.75683 0.0775,0.1397 0.1411,0.30162 0.14139,0.35983 6.9e-4,0.13958 0.0256,0.13527 0.36052,-0.0623 z m -2.75119,-0.52252 c 0.0742,-0.0742 0.13019,-0.0713 0.23065,0.0121 0.17345,0.14395 0.20177,0.10666 0.34996,-0.46083 0.18948,-0.72559 0.0517,-1.55138 -0.37621,-2.25555 -0.18116,-0.2981 -0.38318,-0.55264 -0.44891,-0.56565 -0.12954,-0.0256 -0.6663,0.79033 -0.6663,1.01287 0,0.16213 0.24596,0.74913 0.25069,0.59828 0.002,-0.0582 0.0319,-0.10584 0.0668,-0.10584 0.0349,0 0.0647,0.31433 0.0661,0.6985 0.004,0.95903 0.21227,1.38112 0.52723,1.06616 z m -19.80353,-1.09003 c -0.21382,-0.78287 -0.31901,-1.00742 -0.77212,-1.64829 -0.30138,-0.42627 -0.46812,-0.56498 -1.03633,-0.86211 -0.76338,-0.3992 -1.29449,-0.50711 -1.81112,-0.368 l -0.35264,0.095 0.15063,0.25586 c 0.17995,0.30566 1.1831,1.27685 1.71701,1.66232 0.20953,0.15127 0.64212,0.48465 0.96131,0.74083 0.3192,0.25619 0.66572,0.4658 0.77005,0.4658 0.10433,0 0.25886,0.0764 0.3434,0.16985 0.0845,0.0934 0.16469,0.15888 0.17811,0.14547 0.0134,-0.0134 -0.0533,-0.30893 -0.1483,-0.65669 z m 3.61178,0.20467 c -0.072,-0.13436 -0.20614,-0.455 -0.2981,-0.71253 -0.092,-0.25753 -0.45763,-0.90523 -0.81259,-1.43933 -0.55008,-0.8277 -0.69712,-0.99229 -0.99571,-1.11454 -0.53982,-0.22102 -0.56199,-0.20866 -0.56199,0.31354 0,0.42116 0.0442,0.53418 0.4553,1.16417 0.55697,0.85352 1.25026,1.54197 1.84752,1.83464 0.24687,0.12096 0.45956,0.21508 0.47266,0.20914 0.0131,-0.006 -0.0351,-0.12072 -0.10709,-0.25509 z m -15.689866,-0.22426 c -0.01383,-0.0821 0.0338,-0.17192 0.105833,-0.19956 0.183808,-0.0705 0.164199,-0.22571 -0.08994,-0.71174 -0.234222,-0.44794 -0.450088,-0.56818 -0.843003,-0.46957 -0.233414,0.0586 -0.460087,0.4738 -0.460087,0.84279 0,0.30813 0.6233,0.74504 1.016,0.71217 0.229102,-0.0192 0.29063,-0.0587 0.271195,-0.17409 z m -3.411287,-0.44362 c 0.214157,-0.44682 0.218292,-0.98424 0.0096,-1.24858 -0.101093,-0.12806 -0.232105,-0.23284 -0.291138,-0.23284 -0.245797,0 -0.37822,1.36729 -0.165723,1.71111 0.08908,0.14413 0.326535,0.0222 0.447254,-0.22969 z m 20.435953,-1.11419 c 0.018,-0.41263 -0.0122,-0.50802 -0.53853,-1.69819 -0.1016,-0.22976 -0.27912,-0.43377 -0.49731,-0.5715 -0.40248,-0.25408 -0.44399,-0.26062 -0.41886,-0.066 0.0105,0.0815 -0.0105,0.29168 -0.0467,0.46708 -0.0641,0.31026 0.0638,0.82409 0.20511,0.82409 0.0339,0 0.16868,0.25173 0.29944,0.5594 0.18232,0.42897 0.29188,0.57827 0.46989,0.64033 0.12768,0.0445 0.25376,0.16359 0.28018,0.26463 0.0792,0.3028 0.22615,0.0528 0.24678,-0.4198 z m 4.3545,-0.37144 c 0.14023,-0.0489 0.29832,-0.18403 0.35131,-0.30032 0.1261,-0.27678 0.12361,-0.90433 -0.004,-1.03205 -0.17352,-0.17352 -0.4071,0.12472 -0.41056,0.5242 -0.002,0.1907 -0.0575,0.44197 -0.124,0.55838 -0.20463,0.35796 -0.18769,0.38053 0.18736,0.24979 z m 14.46556,-0.3 c -0.0285,-0.11353 -0.005,-0.20393 0.0581,-0.225 0.13421,-0.0447 0.13801,-2.12031 0.004,-2.43412 -0.0871,-0.20468 -0.0933,-0.1991 -0.18821,0.16933 -0.054,0.20955 -0.17986,0.63837 -0.27976,0.95294 -0.16991,0.535 -0.17234,0.57874 -0.0378,0.67733 0.0992,0.0727 0.16043,0.28294 0.19718,0.67709 0.0448,0.48089 0.0724,0.55585 0.17347,0.47195 0.0711,-0.059 0.10074,-0.17722 0.0726,-0.28952 z m -36.190627,-1.20983 c 0.397438,-0.39744 0.413054,-0.6058 0.08426,-1.12426 -0.134445,-0.212 -0.270376,-0.46715 -0.302067,-0.567 -0.131107,-0.41308 -0.674662,-0.43216 -0.785112,-0.0276 -0.107034,0.39209 -0.07104,1.06585 0.07561,1.41526 0.07754,0.18476 0.162073,0.4026 0.187843,0.48409 0.07741,0.24479 0.3906,0.16833 0.739463,-0.18054 z m 17.031047,0.0126 c -0.26313,-0.68573 -1.1158,-2.01497 -2.37695,-3.70551 -1.02744,-1.37725 -1.54573,-1.94922 -1.63515,-1.80453 -0.0416,0.0672 -0.1604,0.0113 -0.37316,-0.17547 -0.33314,-0.29249 -0.45046,-0.30125 -0.30127,-0.0225 0.0503,0.0941 0.0915,0.25307 0.0915,0.35337 0,0.1167 0.40109,0.61402 1.1141,1.38139 1.46314,1.5747 1.52193,1.631 1.05134,1.00664 -0.22015,-0.29209 -0.38634,-0.57288 -0.36931,-0.62399 0.0795,-0.23846 1.93632,2.11555 2.46386,3.12357 0.30065,0.5745 0.46322,0.80112 0.33501,0.46701 z m 16.32026,-0.2373 c 0.0594,-0.0716 0.1837,-0.11919 0.27623,-0.10583 0.2233,0.0322 0.37254,-0.39858 0.48822,-1.40936 0.10444,-0.91249 0.003,-1.42245 -0.32445,-1.63725 -0.19553,-0.12812 -0.21671,-0.12665 -0.3258,0.0225 -0.0642,0.0878 -0.19234,0.37139 -0.28482,0.63029 -0.0925,0.25891 -0.22151,0.57104 -0.28675,0.69363 -0.20644,0.38794 0.0298,1.93611 0.29544,1.93611 0.0297,0 0.10253,-0.0586 0.16193,-0.13013 z m -36.073187,-0.2023 c 0.119751,-0.2891 0.05545,-0.56229 -0.197301,-0.8382 l -0.180425,-0.19695 -0.0554,0.19695 c -0.07356,0.26148 -0.08504,0.78486 -0.02089,0.95203 0.0843,0.21968 0.342715,0.15489 0.454023,-0.11383 z m 38.447457,-1.06457 c 0.0201,-0.49224 0.11004,-0.85039 0.2063,-0.8216 0.0461,0.0138 0.0749,0.12809 0.064,0.254 -0.0173,0.19979 -0.01,0.20737 0.0575,0.0596 0.11729,-0.25678 0.1033,-0.60683 -0.0378,-0.94442 -0.10116,-0.24213 -0.15056,-0.28443 -0.24276,-0.2079 -0.12176,0.10105 -0.22824,0.0234 -0.33575,-0.24468 -0.028,-0.0699 -0.0335,0.1778 -0.0123,0.55033 0.0213,0.37253 0.0402,1.02023 0.0421,1.43933 0.003,0.72298 0.01,0.749 0.12407,0.508 0.0663,-0.1397 0.12683,-0.4064 0.13444,-0.59266 z m -10.51352,0.0197 c 0.42224,-0.24997 0.47716,-0.31459 0.50023,-0.58852 0.0232,-0.27619 -0.003,-0.32146 -0.25704,-0.44198 -0.40084,-0.19021 -1.00659,-0.20054 -1.27937,-0.0218 -0.22942,0.15032 -0.56383,0.71173 -0.56383,0.94655 0,0.11785 0.0234,0.11697 0.2143,-0.008 0.27913,-0.18289 0.36326,-0.0888 0.18714,0.20938 l -0.13999,0.23698 0.43212,-0.0258 c 0.30491,-0.0182 0.57176,-0.10852 0.90644,-0.30665 z m -21.8411,-0.16784 c 0.0653,-0.16926 0.0801,-0.17398 0.13333,-0.0423 0.0677,0.16743 0.46135,0.1941 1.0046,0.0681 0.39999,-0.0928 0.44159,-0.13529 0.50997,-0.52088 0.0476,-0.26839 0.0131,-0.35601 -0.28953,-0.73615 -0.4783,-0.60071 -1.19697,-1.05765 -2.00744,-1.27634 -0.84055,-0.22681 -0.94038,-0.2302 -0.7553,-0.0257 0.17112,0.18908 0.184,0.38812 0.0211,0.3256 -0.0655,-0.0251 -0.18517,0.0274 -0.26598,0.11667 -0.11716,0.12946 -0.13709,0.25768 -0.0984,0.63278 0.0713,0.69111 0.26584,0.96265 0.9517,1.3286 0.32452,0.17315 0.61984,0.31603 0.65626,0.3175 0.0364,0.001 0.0993,-0.083 0.13969,-0.18782 z m 7.60954,-0.24704 c 0.0542,-0.46833 -0.91941,-1.86723 -1.37993,-1.98281 -0.47572,-0.1194 -1.0553,0.58987 -0.93385,1.14282 0.12943,0.58929 1.05259,1.12754 1.86433,1.087 0.38939,-0.0194 0.42542,-0.0392 0.44945,-0.24701 z m 17.87316,-0.44747 c 0.27927,-0.14442 0.40283,-0.40868 0.51646,-1.10466 0.1715,-1.05035 0.0684,-1.55996 -0.37443,-1.85009 -0.22359,-0.1465 -0.53466,-0.18 -0.69444,-0.0748 -0.052,0.0342 -0.1853,0.22912 -0.29633,0.43313 -0.11103,0.20401 -0.2562,0.47071 -0.3226,0.59267 -0.0737,0.13526 -0.12318,0.48302 -0.127,0.89165 l -0.006,0.6699 0.381,0.27698 c 0.43072,0.31312 0.58441,0.34061 0.92361,0.1652 z m 3.35951,-0.91315 c 0.13146,-0.43055 0.16118,-0.78472 0.1582,-1.88484 -0.003,-1.26113 -0.0187,-1.39034 -0.22183,-1.87135 -0.23881,-0.5656 -0.95072,-1.66237 -1.2676,-1.95287 -0.15347,-0.14068 -1.1002,-0.53611 -1.28356,-0.53611 -0.0167,0 -0.0128,0.11946 0.009,0.26548 0.0275,0.18718 -0.002,0.2883 -0.0993,0.34287 -0.10565,0.0591 -0.13829,0.20628 -0.13829,0.62352 0,0.58267 -0.0793,0.6913 -0.22865,0.31329 l -0.092,-0.23283 -0.009,0.27798 c -0.01,0.30006 0.28228,0.94553 0.6061,1.33978 0.11063,0.1347 0.38159,0.5373 0.60212,0.89466 0.22054,0.35737 0.4618,0.70024 0.53614,0.76194 0.18138,0.15052 0.93794,1.70813 1.00607,2.07128 0.0746,0.39788 0.2183,0.25769 0.42302,-0.4128 z m -1.57026,-3.63106 c -0.22192,-0.51588 -0.43444,-1.19543 -0.38829,-1.24158 0.0524,-0.0524 0.18229,0.2349 0.42544,0.94132 0.26305,0.76423 0.24058,0.94586 -0.0372,0.30026 z m -18.2943,4.09572 c -0.0131,-0.70131 -0.17345,-1.34151 -0.42668,-1.70368 -0.70634,-1.01017 -1.12653,-1.28032 -1.72907,-1.11162 -0.20813,0.0583 -0.35677,0.14096 -0.33033,0.18375 0.0264,0.0428 0.003,0.13242 -0.0527,0.19919 -0.0811,0.0978 -0.0263,0.22571 0.28202,0.65778 0.43027,0.60297 1.56553,1.6401 1.88231,1.7196 0.11432,0.0287 0.20785,0.0861 0.20785,0.12766 0,0.0415 0.0381,0.0755 0.0847,0.0755 0.0466,0 0.0834,-0.0667 0.0819,-0.14817 z m -4.92907,-0.72756 c -0.35173,-0.29609 -0.40763,-0.43759 -0.14581,-0.36913 0.14587,0.0382 0.1323,-0.002 -0.0903,-0.26529 -0.69856,-0.82721 -2.22535,-2.19147 -3.13833,-2.80423 -0.77753,-0.52186 -1.15627,-0.7154 -1.81494,-0.92748 -0.91769,-0.29547 -1.174035,-0.28887 -1.481254,0.0382 -0.178126,0.18961 -0.18548,0.2336 -0.09148,0.54735 0.136065,0.45414 0.461306,0.8087 1.301364,1.41866 1.37673,0.99965 2.43019,1.55488 4.07919,2.14996 0.80249,0.2896 0.93538,0.31664 0.99882,0.20328 0.0779,-0.13916 0.16218,-0.0986 0.46881,0.22575 0.0757,0.0801 0.15877,0.12418 0.18454,0.0979 0.0258,-0.0262 -0.096,-0.16796 -0.27065,-0.31497 z m -10.622742,-0.25654 c -0.02869,-0.1456 -0.106242,-0.39509 -0.17233,-0.55441 -0.09231,-0.22255 -0.137811,-0.2618 -0.19633,-0.16934 -0.12753,0.2015 -0.08957,0.87157 0.0616,1.0874 0.131696,0.18802 0.147121,0.19116 0.249796,0.0507 0.0667,-0.0912 0.08906,-0.25304 0.05726,-0.41439 z m 11.120262,-0.84398 c -0.009,-0.0625 -0.15566,-0.2809 -0.32554,-0.48541 -0.16988,-0.20451 -0.29504,-0.38568 -0.27813,-0.40259 0.0169,-0.0169 0.21076,0.0931 0.43077,0.24448 0.22001,0.15137 0.36884,0.22476 0.33073,0.1631 -0.0518,-0.0837 -0.0295,-0.0968 0.088,-0.0517 0.14862,0.057 0.14822,0.0502 -0.007,-0.12444 -0.0905,-0.10164 -0.57281,-0.53875 -1.07175,-0.97135 -1.43068,-1.24045 -3.84147,-2.78691 -4.59617,-2.94832 -0.48142,-0.10297 -0.635,-0.12633 -0.635,-0.0966 0,0.0164 0.37147,0.25998 0.8255,0.54127 0.45402,0.28129 0.95885,0.63042 1.12183,0.77584 l 0.29633,0.26441 -0.46566,-0.25052 c -0.25612,-0.13778 -0.73935,-0.4039 -1.07385,-0.59137 -0.69502,-0.38953 -0.91938,-0.47448 -1.04617,-0.39612 -0.1629,0.10068 0.0974,0.29748 0.97252,0.73521 1.08646,0.54347 1.92418,1.08949 3.53692,2.30537 2.10165,1.58447 1.92245,1.46273 1.89692,1.28877 z m -9.494592,-0.45792 c 0.07988,-0.12806 0.244269,-0.31653 0.365312,-0.41883 0.271145,-0.22915 0.285066,-0.66511 0.03256,-1.01972 -0.180906,-0.25406 -0.574289,-0.50752 -0.657909,-0.4239 -0.190073,0.19007 -0.263371,1.39282 -0.111442,1.82865 0.114047,0.32715 0.184493,0.33356 0.371477,0.0338 z m 10.454032,-0.41769 c -0.55499,-0.58302 -0.58912,-0.62417 -0.58912,-0.71019 0,-0.15086 0.14834,-0.0761 0.54923,0.27677 0.4004,0.35244 0.4026,0.35318 0.26592,0.0889 -0.0758,-0.14659 -0.13782,-0.41994 -0.13782,-0.60746 0,-0.48758 -0.34455,-1.33636 -0.84131,-2.07253 -0.44141,-0.65413 -1.14676,-1.29645 -1.7994,-1.6386 -0.20073,-0.10523 -0.80311,-0.42166 -1.33863,-0.70318 -1.00958,-0.53073 -1.4932,-0.65943 -2.07082,-0.55107 -0.24637,0.0462 -0.29862,0.0884 -0.26008,0.20982 0.0367,0.11578 -0.0177,0.17311 -0.2286,0.24072 -0.25022,0.0802 -0.25649,0.0897 -0.0652,0.0987 0.11642,0.005 0.26882,0.0469 0.33867,0.092 0.13753,0.0889 0.0706,0.11282 -0.24234,0.0867 -0.12533,-0.0104 -0.17879,0.0177 -0.14317,0.0753 0.0339,0.0548 -0.0136,0.092 -0.11749,0.092 -0.30122,0 -0.19242,0.2498 0.21345,0.49009 0.48671,0.28814 1.0081,0.64006 2.89359,1.95307 0.82626,0.5754 1.68218,1.13746 1.90203,1.24903 0.21986,0.11158 0.75326,0.54427 1.18534,0.96154 0.85121,0.82204 1.08986,1.00306 0.48572,0.36841 z m 16.74204,0.15669 c 0.47921,-0.2578 0.6124,-0.88751 0.21931,-1.03696 -0.30211,-0.11486 -0.58679,-0.0364 -0.71909,0.19829 -0.11706,0.20762 -0.31805,0.81123 -0.3201,0.9613 -0.002,0.11177 0.53267,0.0319 0.81988,-0.12263 z m 8.50699,-0.57393 c 0.15841,-0.24346 0.25707,-0.55724 0.32823,-1.04394 0.089,-0.60873 0.0831,-0.76656 -0.047,-1.26058 -0.10059,-0.3819 -0.23719,-0.66065 -0.42195,-0.86105 -0.15027,-0.16298 -0.39842,-0.48683 -0.55145,-0.71967 -0.53511,-0.81415 -1.11364,-1.31233 -1.524,-1.31233 -0.0978,0 -0.29369,-0.06 -0.43541,-0.13324 -0.14171,-0.0733 -0.27177,-0.11914 -0.28902,-0.10189 -0.0409,0.0409 0.18401,0.79795 0.33389,1.12413 0.0642,0.1397 0.26946,0.5588 0.45614,0.93133 0.18668,0.37254 0.36756,0.77259 0.40197,0.889 0.0933,0.31579 0.6792,1.63921 1.08153,2.44308 0.25241,0.50432 0.36647,0.66231 0.39731,0.55033 0.0238,-0.0864 0.14517,-0.31372 0.26974,-0.50517 z m 1.76153,-1.11951 c -0.066,-0.45353 -0.13187,-0.67641 -0.1844,-0.62387 -0.13323,0.13323 -0.0885,1.07979 0.0758,1.60435 l 0.15259,0.48713 0.0293,-0.381 c 0.0161,-0.20955 -0.0169,-0.69853 -0.0733,-1.08661 z m -39.25098,0.47858 c 0.08161,-0.40803 -0.0253,-0.80547 -0.29405,-1.09317 -0.28801,-0.30832 -0.415988,-0.26138 -0.415988,0.15257 0,0.33681 0.402265,1.20996 0.557438,1.20996 0.0543,0 0.122971,-0.12121 0.1526,-0.26936 z m 31.10785,-2.12285 c 0.0216,-0.32868 -0.0122,-0.43153 -0.21666,-0.66039 -0.18741,-0.20975 -0.28418,-0.25776 -0.42772,-0.2122 -0.23529,0.0747 -0.23579,0.2883 -0.002,0.69879 0.41577,0.72885 0.60622,0.78009 0.64601,0.1738 z m -31.677962,-0.53562 c -0.05853,-0.69243 -0.121239,-0.90239 -0.256191,-0.85781 -0.127564,0.0421 -0.169619,1.15075 -0.05508,1.45201 0.07769,0.20433 0.107472,0.22044 0.225874,0.12218 0.11174,-0.0927 0.127173,-0.2222 0.0854,-0.71638 z m 3.029026,-0.67655 c 0.133203,-0.1332 0.167656,-0.31722 0.133614,-0.71362 -0.04567,-0.53182 -0.479943,-0.93134 -1.012361,-0.93134 -0.273131,0 -0.321915,0.0718 -0.159322,0.23435 0.0754,0.0754 0.07538,0.17734 -9.2e-5,0.42923 -0.0865,0.28872 -0.07448,0.65735 0.03288,1.00859 0.04853,0.15876 0.840763,0.13731 1.005283,-0.0272 z m 28.814136,-2.02591 c -0.0236,-0.20952 -0.0932,-0.44156 -0.15472,-0.51564 -0.10166,-0.12249 -0.12178,-0.12103 -0.22208,0.0161 -0.2294,0.31373 -0.0734,0.88046 0.24237,0.88046 0.16013,0 0.17319,-0.037 0.13443,-0.38095 z m 7.06275,-0.0978 c 0.27044,-0.24475 0.13433,-1.00288 -0.18004,-1.00288 -0.0743,0 -0.14952,-0.12659 -0.18947,-0.31891 -0.08,-0.38511 -0.29921,-0.73943 -0.45745,-0.73943 -0.18664,0 -0.23462,0.40078 -0.0942,0.78684 0.0713,0.19589 0.17491,0.55646 0.23035,0.80126 0.13065,0.57686 0.38425,0.75054 0.6908,0.47312 z M 96.541698,136.1085 c 0.356927,-0.13731 0.497488,-0.31626 0.248418,-0.31626 -0.08231,0 -0.312066,-0.0786 -0.510565,-0.17471 -0.509079,-0.24644 -0.974508,-0.19972 -1.082289,0.10865 -0.06418,0.18361 -0.04771,0.26649 0.08129,0.40903 0.131842,0.14569 0.232621,0.1717 0.544609,0.1406 0.210556,-0.021 0.533896,-0.0963 0.718532,-0.16731 z m 3.045676,-0.0676 c 0.148709,-0.14335 0.152667,-0.17948 0.04233,-0.38655 -0.06694,-0.12562 -0.236012,-0.29825 -0.375712,-0.38361 -0.483089,-0.29519 -1.258426,-0.13041 -1.101411,0.23408 0.03801,0.0882 0.06184,0.22125 0.05296,0.29562 -0.01925,0.16126 0.111918,0.27579 0.455781,0.39798 0.32067,0.11394 0.713788,0.0471 0.926045,-0.15752 z m 4.048116,-0.56253 c 0.33703,-0.0637 0.29509,-0.28388 -0.13921,-0.73074 -0.38238,-0.39344 -1.10556,-0.81807 -1.39326,-0.81807 -0.18083,0 -0.26077,0.20292 -0.18777,0.47667 0.12658,0.47472 1.01689,1.26744 1.31561,1.1714 0.0945,-0.0304 0.27658,-0.075 0.40463,-0.0993 z m 24.93886,-0.29785 c 0.0471,-0.73123 -0.35966,-1.02486 -0.63114,-0.45556 -0.16826,0.35284 -0.0971,0.70631 0.16349,0.81258 0.34597,0.14107 0.44018,0.0691 0.46765,-0.35702 z m 3.63069,0.004 c 0.25025,-0.2351 0.25309,-0.59853 0.007,-0.9436 -0.11495,-0.16143 -0.18857,-0.38967 -0.18857,-0.58457 0,-0.38013 -0.082,-0.41242 -0.19849,-0.0782 -0.11944,0.34263 -0.0165,1.79047 0.1273,1.79047 0.031,0 0.14461,-0.0828 0.25238,-0.18409 z m -1.64751,-0.0487 c 0.30665,-0.34921 0.24856,-0.82862 -0.13049,-1.07699 -0.26239,-0.17192 -0.44673,-0.0967 -0.56012,0.22858 -0.15703,0.45045 -0.11616,0.82243 0.0999,0.90928 0.292,0.11736 0.44834,0.10126 0.5907,-0.0609 z m -29.84101,-0.97352 c -0.0506,-0.16084 -0.58179,-0.40189 -0.886018,-0.40204 -0.295758,-1.4e-4 -0.389099,0.0776 -0.288527,0.24034 0.140151,0.22677 1.242705,0.37856 1.174545,0.1617 z m -2.182181,-0.52226 c 0,-0.0614 -0.535101,-0.36925 -0.953092,-0.54842 -0.312346,-0.13389 -0.401575,-0.1464 -0.401575,-0.0563 0,0.0637 0.276225,0.23259 0.613833,0.37529 0.607806,0.25689 0.740834,0.29809 0.740834,0.22942 z m 2.032001,0.001 c 0,-0.0636 -0.601901,-0.38936 -0.719511,-0.38936 -0.292923,0 -0.179043,0.17438 0.187451,0.28703 0.44384,0.13643 0.53206,0.1534 0.53206,0.10233 z m 29.83051,-0.84324 c -0.0538,-0.33131 -0.2268,-0.4817 -0.37906,-0.32943 -0.058,0.058 -0.0265,0.20218 0.0972,0.44464 0.21356,0.41861 0.35883,0.35922 0.28184,-0.11521 z"
       id="path1" /></g></svg>
