<?xml version="1.0" encoding="UTF-8" standalone="no"?>
<!-- Created with Inkscape (http://www.inkscape.org/) -->

<svg
   width="60mm"
   height="60mm"
   viewBox="0 0 60 60"
   version="1.1"
   id="svg1"
   xml:space="preserve"
   xmlns="http://www.w3.org/2000/svg"
   xmlns:svg="http://www.w3.org/2000/svg"><defs
     id="defs1" /><g
     id="layer1"
     transform="translate(-204.02806,55.858831)"><g
       id="g1"
       transform="matrix(0.26458333,0,0,0.26458333,-23.559519,52.793594)"><g
         id="OBJECTS"
         transform="translate(612.40269,-435.36979)">
	<g
   id="g2">
		<path
   style="fill:none;stroke:#000000;stroke-width:2;stroke-miterlimit:10"
   d="m 315.461,333.074 c 0,0 -2.391,-4.552 -5.551,-2.646 -3.16,1.906 -1.66,6.656 1.34,10.906 3,4.25 13.5,8.5 20.25,25 6.75,16.5 5.131,25.415 14.25,36 9.119,10.585 26.225,43.903 29,38.75 3.5,-6.5 -1.52,-19.852 -10,-29.5 -8.104,-9.221 -16.63,-16.613 -22.25,-21.5 -7.846,-6.822 -5.934,-55.9 -3.951,-73.29 1.982,-17.389 14.669,-58.595 27.356,-53.303 12.687,5.293 7.93,31.376 16.255,43.474 8.326,12.097 15.066,24.951 4.758,40.072 -10.309,15.122 -35.286,43.096 -29.736,26.085 5.551,-17.011 26.96,-27.597 42.026,-15.121 15.066,12.475 20.291,27.834 17.291,42.334 -3,14.5 -5.793,34.408 -20.463,27.602 -14.669,-6.805 -38.538,-29.769 -25.871,-38.102 12.667,-8.334 20.344,-2.471 14,4.333 -6.343,6.805 -26.78,3.757 -33.916,-7.583 -7.136,-11.341 -0.204,-72.814 10.104,-75.082 10.309,-2.268 5.947,30.243 0.793,41.206 -5.154,10.963 -12.29,34.779 -17.445,33.645 -5.154,-1.134 -9.453,-5.019 -14.703,-4.269 -5.25,0.75 -3.843,7.744 2.5,8.5 6.344,0.756 3.086,-6.22 1.5,-10 -1.586,-3.781 -22.231,-19.952 -32.908,-25.608 -10.705,-5.67 -15.066,-11.341 -12.291,-13.987 2.776,-2.647 6.344,0.756 7.534,4.536"
   id="path1" />
		<path
   style="fill:none;stroke:#000000;stroke-width:2;stroke-miterlimit:10"
   d="m 386.168,297.5 c -0.917,-7.333 20.575,-46.862 38.018,-31.362 17.445,15.499 -0.395,31.754 10.705,46.876 11.102,15.121 2.379,26.462 -19.029,39.315 -21.41,12.854 -36.131,23.032 -36.08,17.768 0.052,-5.264 21.806,-10.963 47.972,-10.585 26.168,0.378 32.51,23.816 18.635,41.962 -13.877,18.145 -31.754,34.963 -50.389,22.109 -12.401,-8.555 -19.27,-15.949 -18.564,-18.439 0.355,-1.251 5.624,0.736 10.064,2.439 15,5.75 42.416,12 40.334,-21.75 -1.121,-18.166 -25.398,-14.672 -38.834,-10.25 -8.926,2.938 -21.061,2.749 -9.167,-12.75 11.894,-15.5 20.649,-20.378 18.667,-35.5 -1.981,-15.121 -11.415,-22.499 -12.332,-29.833 z"
   id="path2" />
	</g>
	<path
   style="fill:none;stroke:#000000;stroke-width:2;stroke-miterlimit:10"
   d="m 225.566,150.716 c 0,0 1.691,-2.713 -1.023,-5.218 -2.714,-2.505 -10.832,-0.407 -19.429,10.381 -8.596,10.788 -19.351,24.694 -20.749,25.048 -1.396,0.354 24.201,-105.492 7.575,-122.994 -16.627,-17.5 -36.776,1.343 -40.229,18.836 -3.452,17.494 -11.607,29.393 -22.817,33.512 -11.209,4.121 -4.038,16.316 11.866,24.744 15.907,8.427 32.453,30.511 30.591,38.281 -1.863,7.771 -12.669,-15.396 -8.484,-45.747 4.186,-30.35 17.401,-80.449 -1.552,-86.583 -18.951,-6.133 -24.92,26.529 -32.959,32.256 -8.038,5.727 -31.248,22.043 -20.961,35.454 10.286,13.412 46.215,58.414 47.159,48.403 0.954,-10.118 -50.272,-34.708 -66.884,-36.126 -16.61,-1.42 -21.021,14.153 -21.785,26.443 -0.765,12.291 0.208,40.692 29.432,45.03 29.223,4.339 64.183,-0.792 65.734,-7.787 1.55,-6.995 -39.159,-49.128 -60.804,-44.385 -8.949,1.961 -15.572,11.964 -20.603,23.157 -7.136,15.875 -8.675,34.725 11.512,41.431 34.422,11.434 76.079,-10.054 89.75,-17.646 13.671,-7.592 -1.757,12.843 -15.092,27.429 -10.313,11.281 -14.085,22.413 -17.883,15.887 -3.796,-6.528 3.444,-15.523 12.962,-23.628 13.266,-11.299 30.282,-23.487 31.666,-29.37 2.379,-10.101 -4.198,-6.462 2.367,-23.982 4.698,-12.536 12.808,-26.411 21.103,-27.916 1.976,-0.358 7.794,-0.128 4.45,5.572"
   id="path3" />
	<path
   style="fill:none;stroke:#000000;stroke-width:2;stroke-miterlimit:10"
   d="m 281.916,165.387 c 0,0 -6.885,-3.41 -4.331,-7.645 2.554,-4.235 7.025,-5.689 15.001,-1.985 7.977,3.706 42.1,29.896 54.12,44.766 12.021,14.87 34.122,18.856 20.334,2.969 -13.301,-15.325 -24.778,-17.282 -35.196,-21.954 -10.419,-4.672 -46.374,-80.364 -41.482,-104.534 4.893,-24.17 22.823,-12.44 31.828,7.739 9.006,20.18 29.04,28.895 31.737,36.366 6.269,17.37 -4.047,36.324 -15.021,47.902 -9.531,10.055 -8.279,-10.511 -4.337,-22.592 3.943,-12.08 11.264,-26.781 17.355,-42.323 10.799,-27.554 30.813,-39.615 40.169,-30.802 15.314,14.425 11.382,36.731 18.339,43.694 6.957,6.962 17.373,19.876 1.2,29.513 -20.011,11.925 -64.992,30.936 -48.489,16.431 16.504,-14.505 59.936,-14.701 67.016,-5.121 7.079,9.58 -1.994,20.526 -2.41,29.05 -0.415,8.524 4.403,14.06 -5.521,19.01 -9.925,4.95 -30.408,-4.588 -42.092,-11.237 -7.477,-4.254 -16.627,-7.635 -28.119,-8.628 -11.492,-0.993 -26.752,-3.46 -34.753,-6.628 -6.158,-2.438 -23.623,-5.185 -25.87,-2.227 -4.336,5.708 -0.258,10.772 4.145,10.057"
   id="path4" />
	<path
   style="fill:none;stroke:#000000;stroke-width:2;stroke-miterlimit:10"
   d="m 164.738,298.281 c 4.023,-0.243 6.902,-6.707 0.016,-7.596 -6.887,-0.888 -7.995,13.121 -8.436,22.854 -0.441,9.733 -8.67,36.068 -10.256,47.822 -1.585,11.755 -11.334,45.137 -19.341,52.758 -8.008,7.621 -3.079,-10.475 1.521,-20.143 4.599,-9.666 22.905,-25.944 26.317,-35.489 3.414,-9.545 -11.574,-6.109 -8.236,24.765 3.204,29.634 -2.98,43.713 4.721,55.748 7.701,12.036 42.837,-1.459 50.241,-13.405 10.939,-17.651 -14.284,-46.928 -28.284,-51.428 -10.192,-3.276 -10.525,4.179 2.47,10.033 12.994,5.855 25.13,9.909 37.187,6.668 12.056,-3.242 18.976,-17.546 30.705,-23.951 11.73,-6.406 25.209,-22.985 11.738,-29.589 -13.472,-6.605 -41.866,-2.878 -59.011,5.286 -9.453,4.501 -38.02,27.557 -44.962,28.358 -7.8,0.9 -17.888,7.655 -23.319,11.06 -11.036,6.918 -34.677,31.955 -48.393,22.978 -13.716,-8.978 -14.79,-20.398 -17.269,-31.794 -2.478,-11.396 11.721,-21.995 21.76,-25.428 10.039,-3.433 41.458,-1.077 47.455,6.699 5.999,7.774 -6.752,4.293 -19.705,-1.166 -12.954,-5.46 -28.644,-25.826 -27.85,-37.499 0.795,-11.674 8.058,-26.211 7.475,-35.744 -0.584,-9.534 3.092,-24.84 16.168,-18.194 13.076,6.645 27.672,34.067 30.919,51.66 3.85,20.849 1.811,54.226 6.083,57.162 4.271,2.937 15.724,-11.996 23.829,-26.423 8.105,-14.425 16.374,-27.269 21.952,-27.445 5.577,-0.175 6.083,7.262 0.456,7.262"
   id="path5" />
</g></g></g></svg>
