<?xml version="1.0" encoding="UTF-8"?>
<svg id="Layer_2" data-name="Layer 2" xmlns="http://www.w3.org/2000/svg" viewBox="0 0 443.4593 433.0255">
  <g id="katman_1" data-name="katman 1">
    <g id="aeeahZ">
      <g>
        <path d="m131.5155,359.85c-2.6118-18.9681-5.8553-37.7077-10.0856-56.3222-8.0135-35.2613-29.6706-55.9642-64.6619-63.7553-16.3282-3.6356-32.737-6.641-49.2873-8.9642-1.8977-.2664-3.7876-.5881-7.4807-1.1657,19.3475-2.8209,36.7579-5.9282,54.1295-9.3946,39.0754-7.7975,61.2177-31.5229,68.7905-70.1149,3.2748-16.6886,6.4042-33.3803,9.2335-50.3929.8188,5.4269,1.6407,10.8533,2.4558,16.2807,2.0347,13.5485,4.8393,26.9297,7.8862,40.2949,7.9022,34.6626,29.2623,55.1752,63.7116,63.0406,18.4941,4.2225,37.1449,7.3563,56.6946,10.1062-15.2917,2.6606-29.8143,4.9892-44.2533,7.7546-14.837,2.8416-29.3253,6.9138-42.4802,14.6757-19.0331,11.2302-27.7288,29.4478-33.2407,49.7138-4.9082,18.0461-7.7508,36.489-10.2186,54.9963-.1455,1.0915.3855,2.4778-1.1934,3.2468Z"/>
        <path d="m443.4593,141.6159c-21.1133,2.8584-40.5154,6.1332-59.7034,10.8347-33.2363,8.1437-53.0303,28.9442-60.8957,62.0086-4.4578,18.7394-7.595,37.6752-10.5353,58.7298-1.7795-11.2311-3.2132-20.5291-4.7332-29.8129-2.0446-12.4874-4.8889-24.7827-8.4132-36.9492-8.8497-30.5505-30.1733-47.0445-60.0674-54.3655-18.5934-4.5535-37.4106-7.7217-56.4854-10.9459,7.4104-1.129,14.8421-2.1354,22.2272-3.4111,18.9916-3.2805,37.9869-6.5046,55.7475-14.5972,23.3525-10.6405,34.4008-30.4124,40.6503-53.9059,4.6539-17.4952,7.4392-35.331,9.9607-53.2209.2048-1.4529.5017-2.8929,1.0924-6.2546,2.7523,19.2104,5.9016,36.3689,9.2343,53.5128,7.9956,41.1311,33.6829,62.8722,73.7873,69.9972,14.8223,2.6333,29.5905,5.5354,44.5366,7.4065.6968.0872,1.37.3625,3.5973.9734Z"/>
        <path d="m172.6161,340.602c10.1042-1.7813,20.2391-3.8765,30.4663-5.3149,34.9741-4.9192,52.0441-26.4598,56.543-60.0393,1.1178-8.3432,2.7167-16.622,4.4052-26.8038,1.3904,8.5289,2.4574,15.3339,3.6167,22.1231,1.6741,9.8041,3.9477,19.4488,7.3036,28.843,6.9543,19.4678,22.0277,28.9454,41.0131,33.7313,11.5499,2.9115,23.2471,5.0131,35.0624,6.4923,1.432.1793,2.8376.5688,4.5622.9241-11.0758,2.0233-21.6744,4.2124-32.3563,5.8631-31.6075,4.8844-48.8375,23.6908-53.7906,54.7294-1.6005,10.0296-3.4881,20.0133-5.5703,31.8753-1.9173-13.801-4.1769-25.6569-6.525-37.5057-5.631-28.4149-23.3001-43.82-51.1064-48.8231-11.2092-2.0169-22.4134-4.0618-33.6237-6.0946Z"/>
        <path d="m195.4665,122.0123c-1.7604-9.1527-3.2575-16.4901-4.5725-23.86-3.5291-19.7786-15.8767-30.3087-35.1044-33.7115-6.9255-1.2257-13.8476-2.4712-22.3205-3.9844,10.928-1.725,20.3016-3.1867,29.4945-5.7067,14.4909-3.9723,23.1449-13.2979,26.9064-27.6322,2.2773-8.6783,3.675-17.521,5.9437-27.1174.0014,40.3169,20.3557,59.8161,59.7355,60.7762-2.1751.3514-4.3521.6907-6.5246,1.0573-2.376.401-4.7587.7732-7.1198,1.2506-32.1817,6.5072-40.3869,15.2955-44.8046,47.9237-.4182,3.0885-.9131,6.1666-1.6339,11.0044Z"/>
        <path d="m31.5367,97.5445c17.0948-.5338,25.6834-9.0756,26.047-26.0664,5.0607,21.2407,6.3381,22.5048,26.5162,26.2613-16.5491.5794-25.7536,8.4699-26.1523,26.0598-.7542-17.1191-9.2678-25.7721-26.4109-26.2546Z"/>
        <path d="m365.1106,261.3267c16.8747-.6835,24.8921-9.3279,25.7721-25.8408.8113,16.8948,9.3067,25.2286,26.1985,25.8242-16.4305.8863-25.6678,8.5635-26.1307,25.9574-.764-16.8522-9.3144-25.2081-25.8399-25.9407Z"/>
      </g>
    </g>
  </g>
</svg>