<?xml version="1.0" encoding="iso-8859-1"?>
<!-- Uploaded to: SVG Repo, www.svgrepo.com, Generator: SVG Repo Mixer Tools -->
<!DOCTYPE svg PUBLIC "-//W3C//DTD SVG 1.1//EN" "http://www.w3.org/Graphics/SVG/1.1/DTD/svg11.dtd">
<svg fill="#000000" version="1.1" id="Capa_1" xmlns="http://www.w3.org/2000/svg" xmlns:xlink="http://www.w3.org/1999/xlink" 
	 width="800px" height="800px" viewBox="0 0 565.485 565.484"
	 xml:space="preserve">
<g>
	<g>
		<path d="M381.816,223.177c-27.199-2.8-54.5-2.8-81.699-3.1c0-0.3,0.3-0.3,0.3-0.6c4.3-14.7-3.101-34.9-7-49
			c-5.2-18.4-13.2-37.6-27.2-50.8c-4.9-4.6-11.6-2.1-13.8,3.7c-11.6,30.3-22.3,61.5-31.2,92.4c-0.6-0.3-1.2-0.6-2.1-0.6
			c-30-3.1-61.5-4.6-91.5,1.5c-6.7,1.2-8.3,9.2-5.8,14.4c10.7,23.9,39.5,50.5,65.5,56c-2.1,4.601-4.3,9.5-6.4,14.101
			c-0.6,0.899-1.5,1.8-2.1,2.8c-1.5,1.8-1.8,4-1.5,5.8c-11.6,26.9-21.7,54.5-29.1,82.6c-2.1,7.301,6.7,15.301,13.8,10.4
			c26-17.4,51.4-35.5,75.3-55.4c24.8,19.601,49.6,38.601,77.999,52.601c6.4,3.1,13.5-0.601,14.101-8c2.1-30-1.2-62.4-12.2-90.601
			c12.2-4.3,24.2-16.5,33.7-24.8c13.5-11.6,26.3-24.5,37.899-37.9C393.716,232.377,389.716,223.777,381.816,223.177z"/>
		<path d="M528.917,58.577c-18.7-2.8-38.9-4.9-57.8-3.1c-1.5-6.7-5.5-13.8-8.601-19.6c-4-7.6-9.2-14.4-15.899-19.6
			c-4-3.4-9.5-3.1-12.5,1.5c-6.101,9.8-10.4,21.1-12.9,32.4c-15.9-1.5-32.1,0.3-48.3,0.6c-6.7,0-12.2,8-8,14.1
			c10.399,15,26.3,27.2,43.1,34c-4,14.7-6.7,30-10.399,45c-1.5,6.7,5.5,12.9,11.6,8.9c13.8-8.6,26.9-18.7,39.5-28.8
			c10.4,11,20.2,22.3,30.9,33.4c5.199,5.5,12.899,0.9,13.5-5.5c1.8-16.8,3.1-41-5.2-57.5c16.2-4.9,31.8-11.3,44.399-22.6
			C536.617,68.077,535.117,59.477,528.917,58.577z"/>
		<path d="M495.316,377.377c-10.1,4.601-19.899,9.5-29.699,14.101c-6.4-8.3-13.5-16.5-20.801-24.2c-5.8-6.1-16.5-1.5-16.199,6.7
			c0,11.6,0.6,23.6,1.199,35.2c-11.899,6.1-23.6,11.899-35.199,18.399c-8.601,4.601-4.9,19.3,4.899,18.7c11-0.6,21.7-0.3,32.4,0.9
			c0.6,10.1,1.2,20.199,1.8,30.6c0.3,7.3,9.2,8.6,12.9,4c3.399,0.6,6.699-0.9,8.6-4.9c3.7-8,8-15.6,12.5-23
			c8.9,2.101,17.7,4.601,26.9,7c7.6,2.101,16.5-7.3,11-14.399c-6.101-8-11.601-15.9-17.4-23.9c7-10.399,14.1-20.5,20.5-31.2
			C514.316,381.978,503.516,373.777,495.316,377.377z"/>
		<path d="M124.717,87.977c3.7-5.5,7.3-11,10.4-16.8c4.3-7.6-4.6-18.7-12.9-12.9c-4.3,3.1-8.9,5.8-13.2,8.6
			c-4.9-7.3-9.2-14.7-12.9-22.6c-3.7-8-16.2-4-16.2,4.3c0.3,11.6,0.6,23,1.2,34.6c-8,4.6-15.9,8.9-23.9,13.5
			c-8.3,4.6-4.6,18.1,4.9,17.7c6.7,0,13.8,0,20.5,0c-1.2,2.8-1.8,5.5-1.8,8.3c0.3,5.8,6.4,9.8,11.6,6.7c5.5-3.4,9.8-9.2,13.5-15
			c7,0,14.1,0,21.1,0c8.3,0,11.6-9.8,6.4-15.6C130.517,94.977,127.817,91.277,124.717,87.977z"/>
		<g>
			<path d="M168.217,489.978c-5.5-1.5-10.7-3.7-15.9-5.8c1.8-6.101,3.4-12.2,4.6-18.7c1.5-8.9-8.6-15.9-15.3-8.9
				c-4.9,4.9-10.1,9.8-15,14.4c-5.2-3.101-10.4-6.101-15.3-9.5c-8-5.2-15.6,4.6-11.9,11.899c2.8,5.2,4.9,10.4,7.3,15.601
				c-8,7-15.9,13.8-23.9,20.8c-8.6,7.3,2.4,19,11.3,14.7c7.7-3.7,15.3-6.4,23.3-8.9c1.2,3.101,2.1,6.101,3.4,9.2
				c-0.3,1.2-0.6,2.4-0.6,3.7c0,4.3-0.6,4.899,0.6,0.899c-3.1,9.2,11.3,12.9,14.4,4c-0.3,1.2-0.9,2.101-1.2,2.801
				c0.3-0.301,0.3-0.301,0.6-0.601c1.8-1.8,3.1-4,4-6.399c2.1-5.801,4-11.9,6.1-17.7c0.3-0.601,0.3-1.2,0.6-1.5
				c7-0.9,14.1-1.5,21.4-1.8C175.817,507.478,178.017,492.777,168.217,489.978z"/>
			<path d="M133.017,535.877C131.117,537.777,131.817,537.777,133.017,535.877L133.017,535.877z"/>
		</g>
		<path d="M102.417,537.777c-4.3,6.7-7.6,13.8-9.5,21.7c-1.2,4.899,6.1,8.6,8.6,3.7c3.4-7,6.4-14.4,9.2-21.7
			C112.517,536.277,105.117,533.777,102.417,537.777z"/>
		<path d="M77.917,465.577c-4,2.101-8.3,3.4-12.9,4.601c-4,0.899-8,0-11.9,0c-4.9,0-6.4,6.399-2.4,8.899c10.7,6.7,23.3-0.3,31.8-7.3
			C86.217,468.877,81.617,463.678,77.917,465.577z"/>
		<path d="M109.117,428.478c-4.3,7.6-2.8,16.5-5.5,24.8c-1.2,3.1,3.7,5.2,5.5,2.1c4-7.3,6.1-16.8,7-25.1
			C116.517,426.678,110.917,425.777,109.117,428.478z"/>
		<path d="M193.017,459.077c-3.7,2.101-6.7,5.5-10.4,7.7c-4,2.4-8.6,3.1-13.2,2.4c-3.1-0.601-5.5,4-2.1,5.5
			c11,4.899,25.4,1.5,32.1-9.2C201.817,461.277,196.917,456.978,193.017,459.077z"/>
		<path d="M179.517,544.777c-0.9-4.9-5.5-8.3-6.1-13.5c-0.6-5.8-9.2-6.1-9.5,0c0,6.1,2.8,14.1,7,18.4
			C174.917,553.377,180.117,549.377,179.517,544.777z"/>
		<path d="M403.216,380.777h-0.3c-0.9-1.2-2.4-1.8-4-2.8c-2.4-1.5-4.3-3.4-7-4c-2.8-0.601-5.5,1.8-4.601,4.6
			c1.5,5.5,10.101,11.601,15,7.7h0.301C405.316,385.377,406.216,381.377,403.216,380.777z"/>
		<path d="M398.617,465.277c-4.601,1.2-8,2.4-11.601,5.5c-4.3,3.7-6.7,8.6-6.1,14.1c0.6,3.4,4.899,3.7,7,1.801
			c2.8-2.4,4.3-5.801,6.7-8.301c1.8-2.1,5.5-4.899,7-5.8C405.016,469.877,403.216,463.678,398.617,465.277z"/>
		<path d="M485.216,494.277c-3.1-3.4-6.4-5.5-6.7-10.4c-0.6-5.8-9.2-6.1-9.5,0c-0.3,4.301,0.601,8,2.4,11.601
			c1.8,3.6,6.7,8.899,11.3,7.6C486.716,501.978,487.917,497.077,485.216,494.277z"/>
		<path d="M524.016,415.377c-4,0.301-6.399,2.801-9.5,5.2c-3.399,2.4-7,4.3-10.399,6.4c-4.9,2.8-0.601,9.8,4.3,7.7
			c6.7-3.101,18.1-7.301,19-15.601C527.417,416.877,525.617,415.077,524.016,415.377z"/>
		<path d="M478.816,328.478c-0.899-5.2-9.199-5.2-10.399,0c-2.4,11.6,0,23.899-2.4,35.8c-1.2,6.1,7.7,8.6,9.2,2.4
			C478.516,355.077,481.216,340.377,478.816,328.478z"/>
		<path d="M450.016,179.777c-0.6-8,0-15.6,0.9-23.6c0.6-5.2-6.101-7.3-8-2.1c-2.4,7.3-3.101,15.3-3.4,23.3
			c-0.3,6.7-0.6,15.9,3.4,21.7c2.1,2.8,7.6,3.1,8.3-1.2C452.417,191.977,450.316,185.877,450.016,179.777z"/>
		<path d="M532.917,121.277c-5.8-0.6-9.2,4.9-14.7,5.5c-5.8,0.6-6.1,9.2,0,9.5c6.1,0,15.3-2.8,18.7-8.6
			C538.117,124.677,536.016,121.577,532.917,121.277z"/>
		<path d="M510.016,12.077c-0.899-2.8-5.8-4.6-7.3-0.9c-0.9,2.1-0.9,4.3-1.5,6.7c-0.6,3.1-3.1,5.8-5.5,7.7c-2.4,1.8-1.2,6.7,2.1,5.5
			C504.816,27.977,512.716,19.677,510.016,12.077z"/>
		<path d="M404.716,17.877c-3.1-1.8-5.5-4-7.3-6.7c-2.4-3.4-3.4-7.6-6.4-10.1c-2.399-1.8-6.7-1.5-7.6,2.1
			c-1.8,9.8,8.899,19.3,16.8,23C405.316,28.277,409.917,20.877,404.716,17.877z"/>
		<path d="M375.917,99.577c-6.101,0-18.4,4-16.5,11.9c0.899,4,4.6,4.3,8,3.7c2.1-0.3,3.7-2.4,5.5-3.7c1.5-0.9,2.8-1.5,4.3-1.8
			C383.016,108.777,381.516,99.577,375.917,99.577z"/>
		<path d="M349.617,153.777c-7,3.4-12.2,10.7-17.101,16.5c-4.6,5.5-8.3,11.3-11.3,17.7c-2.4,5.8,5.2,10.7,8.6,5.2
			c3.7-5.8,7.601-11.3,12.2-16.2c4.9-5.2,11.3-9.8,14.4-16.2C358.816,155.877,354.216,151.277,349.617,153.777z"/>
		<path d="M402.617,320.777c-5.5-6.7-13.801-10.7-20.5-16.2c-2.4-1.8-4.601-4-7.301-5.5c-1.8-0.899-2.1-0.6-3.399-1.5
			c-2.101-1.5-5.2,1.5-3.7,3.7c0.6,0.9,0.9,2.1,1.5,3.4c1.8,3.1,4.6,5.5,7,8c6.4,6.1,13.5,13.5,22,15.3
			C402.917,329.077,405.316,324.178,402.617,320.777z"/>
		<path d="M255.417,406.777c-0.3-6.7,0-13.8-0.9-20.5c-0.3-4-5.8-4-6.4,0c-0.6,6.7-0.3,13.8-0.9,20.5c-0.3,6.4-0.9,12.5,0.6,19
			c0.9,3.4,5.8,3.4,6.7,0C256.617,419.077,255.717,413.178,255.417,406.777z"/>
		<path d="M140.617,297.877c-10.4,1.801-21.7,0.9-31.2,0.301c-3.1-0.301-5.8,3.399-4.9,6.399c2.1,7,10.4,7,16.5,7
			c7.7,0,16.5-0.6,23.6-3.7C150.717,305.178,146.117,296.978,140.617,297.877z"/>
		<path d="M200.617,183.377c-1.8-8-4.6-15.6-8.9-22.6c-3.4-5.5-8-14.1-15.3-12.5c-1.5,0.3-2.8,1.5-3.1,3.1c-1.5,6.1,4.6,11,7.7,15.6
			c4,6.1,6.7,12.5,8.9,19.3C192.017,192.877,202.117,190.177,200.617,183.377z"/>
		<path d="M121.017,130.777c-1.2-3.4-6.4-2.1-5.5,1.5c1.2,4.6,2.4,9.2,3.7,13.8c0.9,5.2,0.6,10.7,2.1,15.9c0.9,2.8,4.9,3.1,5.8,0
			C129.917,151.877,124.417,139.977,121.017,130.777z"/>
		<path d="M62.917,124.677c-4,1.8-7.6,4.6-11.3,7c-3.1,2.1-7,3.4-8,7.3c-0.3,1.2,0,3.4,1.2,4.3c4,3.4,8,0.6,11.3-2.1
			c3.7-3.1,7-6.4,11.3-8.9C72.117,129.277,67.817,122.477,62.917,124.677z"/>
		<path d="M58.317,77.577c-8.9-4.3-14.1-12.9-22-18.1c-1.5-0.9-4-1.2-5.5,0c-0.9,0.6-1.2,1.2-1.8,1.8c-1.2,1.5-0.9,4,0,5.5
			c5.5,8.6,16.8,15.6,26.3,18.1C59.517,86.077,62.617,79.677,58.317,77.577z"/>
		<path d="M117.117,7.777c-2.1,3.4-3.4,7.3-4.9,11c-1.8,4.3-4.6,8.6-7,12.9c-3.4,5.2,4.6,9.5,8,4.6c5.2-7.6,11.9-16.5,12.5-26
			C126.217,4.977,119.517,4.077,117.117,7.777z"/>
		<path d="M183.517,86.377c-5.5-0.3-10.7,0.6-16.5,1.5c-6.4,0.6-12.9,0.6-19.3,1.2c-4.9,0.6-4.9,7,0,7.3c11.6,1.2,26.9,2.4,37.3-3.7
			C188.417,90.977,186.817,86.677,183.517,86.377z"/>
	</g>
</g>
</svg>