<?xml version="1.0" encoding="UTF-8" standalone="no"?>
<!-- Created with Inkscape (http://www.inkscape.org/) -->

<svg
   width="204.72937mm"
   height="281.64661mm"
   viewBox="0 0 204.72937 281.64661"
   version="1.1"
   id="svg1"
   xml:space="preserve"
   xmlns="http://www.w3.org/2000/svg"
   xmlns:svg="http://www.w3.org/2000/svg"><defs
     id="defs1" /><g
     id="layer1"
     transform="translate(-2.7727696,-9.6975133)"><path
       style="fill:#ffffff"
       d="m 182.45129,291.28544 c -0.1819,-0.0634 -0.33073,-0.52275 -0.33073,-1.02067 0,-0.49791 -0.59398,-2.5195 -1.31996,-4.49241 -1.70769,-4.64082 -2.18221,-6.50204 -1.97121,-7.73183 0.42568,-2.4811 1.03002,-4.36559 2.22388,-6.93469 5.55766,-11.95965 5.43092,-11.64167 4.63978,-11.64167 -0.21795,0 -0.96209,0.39934 -1.65365,0.88742 -2.90647,2.05129 -7.34606,3.67067 -10.91467,3.98124 -1.09141,0.095 -3.46326,0.47697 -5.27079,0.84886 -4.91939,1.01215 -5.5863,0.40728 -3.27989,-2.97478 2.295,-3.36532 4.72497,-5.79604 6.94204,-6.94421 3.95288,-2.04709 6.48622,-2.35847 9.83052,-1.20829 1.08052,0.37161 2.76944,0.74617 3.75317,0.83235 1.52243,0.13337 1.87099,0.0821 2.3422,-0.34431 1.16374,-1.05317 1.84223,-3.30131 2.34751,-7.77828 0.15602,-1.38245 0.41245,-3.3312 0.56985,-4.33057 0.29657,-1.88295 0.0373,-4.99967 -0.70721,-8.50172 -0.89714,-4.21999 -4.02817,-10.12623 -7.38621,-13.93303 -1.11168,-1.26025 -2.19899,-2.35957 -2.41624,-2.44294 -0.47634,-0.18279 -0.55255,0.0347 -0.7414,2.11609 -0.13365,1.47294 -0.089,1.66915 0.50682,2.22893 0.35936,0.3376 0.65338,0.75834 0.65338,0.93497 0,0.17664 0.30808,1.37627 0.68462,2.66586 l 0.68463,2.3447 -0.47028,2.11667 c -0.61987,2.78994 -0.98831,3.64095 -2.11741,4.89073 -1.64366,1.81934 -7.32702,5.03114 -8.90272,5.03114 -1.10073,0 -1.27267,-0.76388 -0.32418,-1.44024 0.41968,-0.29927 1.04198,-0.81202 1.38289,-1.13944 0.34627,-0.33257 0.952,-0.59532 1.37245,-0.59532 0.9269,0 3.40701,-1.77476 4.98456,-3.56696 1.52384,-1.73117 2.31683,-4.26149 2.05654,-6.56214 -0.20937,-1.85052 -0.76253,-3.36465 -1.22923,-3.36465 -0.17469,0 -1.60775,1.27133 -3.18458,2.82517 -3.46766,3.41712 -3.91585,4.29604 -3.48205,6.82855 0.46484,2.71369 -0.12244,4.02168 -1.28412,2.86 -0.395,-0.395 -0.56215,-1.0235 -0.67737,-2.54702 -0.1431,-1.89216 -0.0995,-2.12949 0.67663,-3.67955 0.56122,-1.12091 1.72987,-2.59847 3.61251,-4.56735 1.53061,-1.60073 2.82967,-3.14855 2.88681,-3.43959 0.0571,-0.29104 0.22788,-1.64021 0.37942,-2.99815 0.3335,-2.98839 0.18,-3.49667 -1.50115,-4.97093 -1.29411,-1.13485 -6.5999,-8.22726 -8.38853,-11.21321 -0.5666,-0.94588 -1.28818,-2.10218 -1.6035,-2.56954 -0.60913,-0.90284 -2.31592,-5.08413 -3.59521,-8.80754 -1.23898,-3.60608 -1.84047,-9.69934 -1.29267,-13.09512 0.1757,-1.08915 0.24346,-2.21972 0.15057,-2.51237 -0.2876,-0.90617 -0.86335,-0.58952 -1.31763,0.72468 -0.5258,1.5211 -1.68688,3.92752 -3.35108,6.94531 -1.23717,2.24345 -1.81099,4.10712 -3.11094,10.10389 -0.30561,1.4098 -0.55565,3.31432 -0.55565,4.23226 0,1.54758 0.13954,1.94418 1.91823,5.45214 l 1.91823,3.78316 -0.004,3.75854 c -0.004,3.74101 -0.01,3.77769 -1.27712,7.85959 -1.24314,4.00473 -1.58067,5.91028 -1.98173,11.18833 -0.17666,2.32481 -0.47813,2.95612 -1.26707,2.65337 -0.52215,-0.20036 -0.72658,-1.09939 -0.66597,-2.92866 0.0442,-1.33443 -0.097,-2.00011 -0.72957,-3.43958 -1.40543,-3.1981 -2.77266,-5.40095 -4.61291,-7.43224 -2.43897,-2.69215 -3.14148,-4.12518 -3.29746,-6.72638 -0.21104,-3.51944 -0.45007,-3.1843 7.92269,-11.10807 0.3743,-0.35422 0.48933,-0.85157 0.48956,-2.11666 3.8e-4,-2.12413 0.92139,-9.11886 1.47191,-11.17865 0.8149,-3.049 3.93885,-9.2494 6.57574,-13.05149 1.81837,-2.62189 3.62585,-5.58204 4.89891,-8.02308 1.39391,-2.67275 6.19288,-9.81136 8.57337,-12.75315 3.42965,-4.23831 4.15767,-5.25509 5.98013,-8.3521 2.5596,-4.34963 3.79301,-6.90879 4.79218,-9.94309 0.72636,-2.20582 0.88984,-3.15186 0.98302,-5.68855 0.27611,-7.51727 -2.03679,-15.4771 -6.45882,-22.2279 -2.38073,-3.63448 -2.82004,-3.54711 -2.57351,0.51182 0.339,5.58165 -0.40455,8.76429 -3.24997,13.91088 -2.32512,4.20551 -3.42322,5.62447 -8.95472,11.57126 -3.62909,3.90154 -4.65983,5.1176 -7.80521,9.20851 -3.37312,4.3871 -7.67291,11.64364 -7.67291,12.94915 0,0.32479 0.29765,0.94426 0.66145,1.37662 0.94803,1.12666 0.86644,2.14817 -0.26458,3.31274 -0.50932,0.52443 -0.92604,0.98335 -0.92604,1.01981 0,0.0365 0.50602,1.11952 1.12448,2.40681 1.12221,2.33578 1.12448,2.34666 1.12448,5.38564 0,2.76665 -0.0726,3.22638 -0.79375,5.02708 -1.06578,2.66119 -2.77842,4.4955 -4.19733,4.4955 -0.73679,0 -1.15885,-0.18462 -1.66335,-0.7276 -0.74471,-0.80152 -1.67995,-2.49361 -1.67995,-3.03945 0,-0.1917 -0.18021,-0.60583 -0.40047,-0.92029 l -0.40047,-0.57176 -1.40819,0.64469 c -0.77451,0.35459 -2.11927,0.71902 -2.98835,0.80985 -1.53727,0.16068 -1.59947,0.1422 -2.29237,-0.68127 -0.85818,-1.01989 -0.88849,-1.76693 -0.16653,-4.10437 0.69503,-2.25026 0.5179,-2.51478 -1.70258,-2.54263 -3.4778,-0.0436 -4.6269,-0.95232 -4.27151,-3.37791 0.15293,-1.04382 0.41234,-1.45869 1.69852,-2.71651 1.76413,-1.72521 3.25003,-2.37319 6.94585,-3.02898 3.21886,-0.57115 3.58636,-0.73137 4.08734,-1.78194 0.31761,-0.66604 0.8889,-1.11911 2.34134,-1.85684 1.05666,-0.5367 2.22533,-0.97582 2.59705,-0.97582 0.85201,0 1.78369,-1.08024 2.97925,-3.45431 1.6366,-3.24986 8.09406,-11.76285 12.35517,-16.28807 1.66034,-1.76325 3.59387,-4.02544 4.29671,-5.02708 0.70285,-1.00164 1.66867,-2.23789 2.14627,-2.74721 1.17569,-1.2538 4.71497,-7.48022 5.38856,-9.47975 0.29943,-0.88883 0.54441,-2.08745 0.54441,-2.66359 0,-0.57614 0.11737,-1.91935 0.26083,-2.98491 0.15619,-1.16016 0.17932,-3.5959 0.0576,-6.07164 -0.20089,-4.08787 -0.21421,-4.15535 -1.18686,-6.0121 -1.40204,-2.6764 -1.29441,-3.35847 0.3161,-2.00331 0.81455,0.68539 3.39657,4.2558 4.17893,5.77859 0.23025,0.44816 0.83208,1.23156 1.33739,1.74088 1.26019,1.27018 3.0064,3.98595 4.54718,7.07194 0.99281,1.9885 1.56765,3.69154 2.48999,7.37699 0.65955,2.6354 1.27449,5.73102 1.36653,6.87917 0.29979,3.73987 0.94719,4.42428 2.18305,2.30785 0.93275,-1.59737 3.51258,-4.63562 4.58395,-5.3985 0.45994,-0.32751 1.68396,-0.96591 2.72003,-1.41866 4.04742,-1.76868 7.12164,-3.66211 9.00173,-5.54422 2.23412,-2.23654 2.62778,-2.18017 2.75571,0.39461 0.16964,3.41447 -0.38189,6.39881 -1.74371,9.43518 -1.05011,2.34137 -1.54794,3.09418 -3.10287,4.69207 -1.88569,1.93779 -2.43419,2.24009 -5.55625,3.06228 -3.74773,0.98697 -7.57012,0.33243 -9.10006,-1.55826 -0.66199,-0.81808 -0.86545,-0.92768 -1.26818,-0.68314 -0.26382,0.1602 -0.51501,0.63645 -0.55818,1.05833 -0.24528,2.39658 -2.12807,7.40853 -3.83089,10.19774 -0.32369,0.5302 -1.21253,2.12285 -1.97519,3.53922 -0.76267,1.41637 -1.87225,3.18522 -2.46573,3.93079 -0.59348,0.74556 -2.45565,3.20103 -4.13815,5.45661 -1.68251,2.25557 -3.74783,4.99401 -4.58961,6.08541 -0.91541,1.18687 -2.33447,3.63256 -3.53095,6.08542 l -2.00043,4.10104 -0.26807,3.175 c -0.54403,6.44364 -0.17011,13.84337 0.80307,15.89239 0.281,0.59165 0.51091,1.36781 0.51091,1.72479 0,1.20836 3.29035,7.71552 5.77963,11.43008 3.06534,4.57418 4.43427,6.2164 9.31064,11.16941 4.23036,4.29683 7.3857,8.35496 8.81806,11.34102 1.89037,3.9409 2.88167,6.71265 3.3623,9.40125 0.73366,4.10403 1.19888,4.85811 4.21479,6.83189 1.38244,0.90475 2.93067,2.16214 3.4405,2.7942 2.0218,2.5065 3.59928,7.04959 3.89027,11.20388 0.1422,2.03009 -0.15902,3.01098 -0.92394,3.00869 -1.20602,-0.004 -3.80797,-2.4402 -5.74445,-5.37939 -0.84569,-1.28358 -1.87921,-3.89288 -2.92406,-7.38224 -0.90653,-3.02742 -1.47484,-2.53585 -1.95029,1.68693 -0.37209,3.30469 -2.40182,9.15005 -5.3242,15.33301 -1.65973,3.51155 -1.81244,4.33832 -1.10674,5.99221 0.33251,0.77929 0.60087,2.16895 0.7032,3.64146 0.091,1.30969 0.36328,3.50359 0.60501,4.87533 0.4137,2.34755 0.41213,2.65844 -0.0268,5.29167 -0.50299,3.01761 -1.2763,5.02674 -2.62029,6.80774 -0.90817,1.20347 -1.18759,1.40286 -1.7104,1.22049 z m 1.88983,-4.77886 c 0.55553,-1.07428 0.94882,-3.55371 1.01757,-6.41508 0.0626,-2.60442 -0.69844,-8.65965 -1.14518,-9.11201 -0.45281,-0.45849 -1.10667,0.22998 -1.60177,1.68655 -0.26081,0.76727 -0.79168,2.04396 -1.17971,2.83707 -0.65361,1.33592 -0.69502,1.62145 -0.56284,3.88019 0.10359,1.77001 0.36991,3.09071 0.97185,4.81941 0.45604,1.30969 0.88035,2.53008 0.94291,2.71198 0.20839,0.60591 1.16205,0.35597 1.55717,-0.40811 z m -13.22725,-23.3478 c 3.43979,-0.32593 7.79731,-1.64841 9.94836,-3.01927 0.80036,-0.51008 1.94549,-1.16696 2.54473,-1.45975 1.45879,-0.71277 1.86019,-1.20357 1.41906,-1.73511 -0.38609,-0.4652 -1.1799,-0.30414 -1.97942,0.40162 -0.29104,0.25691 -1.12448,0.53432 -1.85208,0.61647 -0.72761,0.0822 -1.82893,0.23113 -2.4474,0.33106 -0.91579,0.14799 -1.12448,0.10591 -1.12448,-0.22675 0,-0.27752 0.36045,-0.46285 1.12448,-0.57816 2.94244,-0.44409 3.2496,-0.6474 2.34489,-1.55211 -0.45019,-0.4502 -0.96064,-0.58365 -2.53676,-0.66324 -2.62164,-0.13239 -4.89014,0.56849 -7.81177,2.41355 -1.86649,1.17872 -2.46969,1.74128 -3.54688,3.30791 -1.12162,1.63125 -1.24971,1.94575 -0.94301,2.3153 0.24943,0.30055 0.59862,0.38192 1.17493,0.2738 0.45102,-0.0846 2.10943,-0.276 3.68535,-0.42532 z m 30.58586,-8.93013 c 0,-2.88257 -2.99435,-8.41041 -5.4149,-9.99641 -1.55673,-1.02001 -1.25555,1.09108 0.84729,5.93891 0.95566,2.20318 1.5206,3.11639 2.61359,4.22482 0.76691,0.77775 1.5203,1.33627 1.6742,1.24116 0.1539,-0.0951 0.27982,-0.72893 0.27982,-1.40848 z m -49.47054,-31.95566 c 0.14192,-0.37328 0.25804,-1.03068 0.25804,-1.46091 0,-0.43022 0.41284,-1.83873 0.91742,-3.13002 1.1149,-2.85318 1.99276,-5.9479 1.99364,-7.0282 0.001,-1.26656 -1.54737,-5.81839 -2.33062,-6.85131 -1.11439,-1.46962 -1.4408,-1.27927 -2.68979,1.56863 -0.89478,2.04025 -1.1326,2.92061 -1.23294,4.56406 -0.25463,4.17053 -0.69809,4.91874 -1.01146,1.70654 -0.14215,-1.45709 -0.0494,-2.26383 0.50221,-4.36998 0.81161,-3.09871 0.8408,-3.63471 0.19794,-3.63471 -0.65337,0 -1.09231,0.39689 -2.48724,2.24896 -1.92217,2.5521 -2.32377,3.34197 -2.32484,4.57256 -0.002,1.90604 0.4638,2.68863 4.90392,8.24491 0.51678,0.64669 1.30805,1.86708 1.75838,2.71198 0.45032,0.84489 0.92419,1.53617 1.05304,1.53617 0.12885,0 0.35038,-0.30541 0.4923,-0.67868 z m -6.47149,-46.74788 c 0.39922,-0.47294 1.06456,-1.57427 1.47852,-2.4474 0.63498,-1.33926 0.75169,-1.91847 0.74641,-3.70416 -0.0116,-3.92991 -1.29052,-7.54063 -2.67085,-7.54063 -0.8064,0 -0.9318,0.39069 -2.25035,7.01146 -0.75464,3.78925 -0.75628,4.43556 -0.0153,6.05401 0.82944,1.81174 1.56734,1.98229 2.71159,0.62672 z m -7.42568,-3.61152 c 1.83152,-0.8498 2.76588,-2.09324 3.43267,-4.56819 0.32676,-1.21285 0.7864,-2.90325 1.02142,-3.75644 0.42304,-1.53574 0.27799,-2.54979 -0.36473,-2.54979 -0.14171,0 -1.55028,1.18755 -3.13017,2.63899 -3.05287,2.80468 -3.76849,3.91135 -4.13651,6.39686 -0.2728,1.84241 -0.0277,2.34242 1.14463,2.33543 0.53589,-0.003 1.4506,-0.22679 2.03269,-0.49686 z m -0.29853,-9.0573 c 1.83768,-1.47444 3.34124,-2.83515 3.34124,-3.02381 0,-0.44079 -0.73104,-1.17456 -1.17018,-1.17456 -0.463,0 -6.19205,1.47293 -7.11613,1.82955 -1.82868,0.70571 -3.81071,2.92171 -3.4512,3.85859 0.26749,0.69707 1.64123,1.1692 3.43533,1.18067 l 1.61971,0.0104 z m 7.30076,-3.73399 c 1.19956,0.0459 1.68121,-0.3413 1.30316,-1.04769 -0.19857,-0.37105 -0.47189,-0.49154 -0.92048,-0.40579 -0.70446,0.13467 -0.79436,-0.0907 -0.3317,-0.83152 0.7346,-1.17628 -0.58321,-1.77207 -2.1395,-0.96729 -1.27499,0.65933 -1.39947,1.57063 -0.38001,2.78219 0.48996,0.58228 0.82426,0.77011 1.12448,0.63181 0.23498,-0.10824 0.8398,-0.18101 1.34405,-0.16171 z m 50.80923,-27.58466 c 0.80036,-0.25967 1.932,-0.63237 2.51475,-0.82821 2.69628,-0.90616 5.73939,-5.20299 6.60746,-9.32967 0.66046,-3.1397 0.45865,-4.2281 -0.63509,-3.42517 -2.48031,1.82084 -4.13434,2.82022 -5.84129,3.52938 -2.61309,1.08561 -4.98701,2.70407 -7.2099,4.91544 -2.63689,2.62324 -2.3336,3.47837 0.79353,2.23739 2.18068,-0.86539 4.3867,-2.07881 5.61676,-3.08948 0.5061,-0.41583 1.19873,-0.75606 1.53918,-0.75606 0.51867,0 0.58994,0.0965 0.4397,0.59531 -0.50709,1.68356 -3.92599,3.80291 -7.39698,4.58533 -2.17387,0.49003 -2.64583,0.70236 -2.64583,1.19038 0,1.10328 3.35061,1.30555 6.21771,0.37536 z m -27.87609,61.41001 c -0.60268,-0.64044 -1.45298,-1.35022 -1.88954,-1.57728 l -0.79375,-0.41285 1.11185,0.0327 c 1.37016,0.0402 1.84464,-0.3312 2.22026,-1.73813 1.73831,-6.51113 3.89458,-9.52249 8.25713,-11.53162 1.193,-0.54943 2.46675,-1.08918 2.83055,-1.19945 1.01287,-0.30701 3.95704,-2.3301 5.56512,-3.82408 0.79269,-0.73644 1.59496,-1.33899 1.78283,-1.33899 0.51703,0 0.6705,0.67521 0.40519,1.78268 -0.16446,0.68648 -0.12699,1.44711 0.12074,2.45066 0.19756,0.80036 0.37553,2.94349 0.39548,4.7625 0.05,4.56095 -0.51608,6.42053 -2.64762,8.69707 -3.00118,3.20534 -7.89734,5.06126 -13.35231,5.06126 h -2.91014 z m 7.93707,-0.69176 c 2.15595,-0.44071 2.9992,-0.7694 4.85777,-1.89348 3.22136,-1.94832 4.02987,-2.64696 4.90047,-4.23451 0.7136,-1.30126 0.77095,-1.61001 0.75314,-4.05435 -0.0171,-2.34036 -0.21792,-7.06839 -0.32316,-7.60677 -0.079,-0.40396 -0.64346,-0.17533 -1.63314,0.66146 -0.55936,0.47294 -3.00456,1.87079 -5.43378,3.10634 -5.54192,2.81872 -6.31224,3.59806 -8.17036,8.26598 -0.44653,1.12178 -0.67851,2.15026 -0.62662,2.77813 0.12841,1.55349 0.81805,1.43729 3.13257,-0.52783 4.48272,-3.80602 5.02621,-3.54323 1.1563,0.55908 -2.50448,2.65488 -2.91446,3.47923 -1.73035,3.47923 0.27959,0 1.68231,-0.23998 3.11716,-0.53328 z m -27.88244,-57.21203 c -0.99022,-1.0266 -1.27972,-1.72883 -1.52628,-3.70229 -0.22464,-1.79795 -0.49523,-1.76729 -1.66512,0.18864 -1.09584,1.83212 -2.46613,2.96235 -4.2106,3.47295 -1.25633,0.36773 -1.46311,0.36507 -2.29466,-0.0295 -0.99554,-0.47242 -1.74855,-1.73375 -1.74855,-2.92893 0,-1.08547 1.00197,-2.966 2.19958,-4.12824 0.57842,-0.56134 1.93699,-1.44073 3.01904,-1.95421 2.26165,-1.07325 2.27857,-1.52192 0.0672,-1.78382 -3.82994,-0.4536 -7.19365,-3.82477 -6.3542,-6.3683 0.36041,-1.09206 1.52345,-2.16287 2.60784,-2.40104 0.48948,-0.10751 1.31271,0.0398 2.32145,0.41533 1.9502,0.72606 2.56075,1.10262 4.16456,2.56856 1.60368,1.46582 1.80274,1.30608 2.18182,-1.75083 0.74354,-5.99604 4.41682,-9.24431 5.78742,-5.11781 0.51673,1.55573 0.58071,3.87641 0.1434,5.20147 -0.51807,1.56975 -0.90746,0.7256 -0.82851,-1.7961 0.0823,-2.62825 -0.22224,-3.6322 -1.10176,-3.6322 -1.49698,0 -2.8308,2.93055 -2.8308,6.21959 0,2.32737 0.47826,3.70217 1.44039,4.14055 0.81388,0.37082 1.35094,-0.0274 2.46607,-1.82853 0.94501,-1.52635 3.27819,-2.71078 5.3399,-2.71078 1.22789,0 1.49475,0.10486 2.28948,0.89959 1.17875,1.17875 1.20434,2.33979 0.0943,4.27988 -1.26986,2.21948 -3.13603,3.49701 -5.7546,3.93941 -0.61066,0.10317 -1.17547,0.29304 -1.25513,0.42194 -0.0797,0.12889 0.1876,0.9222 0.59392,1.76291 1.03742,2.1465 1.03048,4.09772 -0.0195,5.47429 -1.65438,2.169 -3.69984,2.62683 -5.12675,1.1475 z m 3.49493,-1.39788 c 1.25809,-1.25809 1.2979,-2.78904 0.1257,-4.83309 -1.30559,-2.27664 -1.91946,-2.14867 -2.87523,0.59941 -0.75779,2.17879 -0.74109,4.2102 0.0391,4.75666 0.9171,0.64236 1.69524,0.49222 2.71044,-0.52298 z m -9.86976,-0.4542 c 0.22496,-0.1819 1.12447,-1.28323 1.99891,-2.4474 0.87445,-1.16416 2.08226,-2.59291 2.68403,-3.175 0.60177,-0.58208 1.09423,-1.20013 1.09436,-1.37344 3.7e-4,-0.50054 -0.51672,-0.68586 -0.93805,-0.33618 -0.22898,0.19003 -0.71698,0.25409 -1.19989,0.15751 -0.61607,-0.12322 -1.01794,-0.01 -1.65299,0.466 -0.46147,0.34584 -1.34175,0.88125 -1.95616,1.18981 -1.53719,0.77196 -2.99279,2.10185 -3.42021,3.12482 -0.48359,1.15738 -0.45111,1.57263 0.1717,2.19544 0.61247,0.61247 2.55791,0.73242 3.2183,0.19844 z m 14.32349,-8.83365 c 0.98517,-0.50393 2.81596,-1.8608 3.29415,-2.44143 0.45932,-0.55772 0.41371,-2.1809 -0.0812,-2.8874 -0.32991,-0.47101 -0.66874,-0.58804 -1.70257,-0.58804 -1.817,0 -2.50051,0.3311 -4.13092,2.00106 -1.57327,1.61144 -2.56814,3.29755 -2.32285,3.93676 0.22645,0.59013 3.77812,0.57508 4.94334,-0.0209 z m -9.07512,-1.36045 c 0,-0.65014 -2.93098,-3.47122 -5.11705,-4.9252 -3.07732,-2.04675 -4.67253,-1.87104 -4.67253,0.51467 0,0.95349 0.14069,1.24574 0.93581,1.94386 1.70828,1.4999 3.48847,2.22925 5.55667,2.2766 1.02425,0.0235 2.09582,0.17809 2.38125,0.34364 0.72533,0.42069 0.91585,0.38874 0.91585,-0.15357 z m 4.20659,-26.87413 c -0.64013,-0.34204 -1.5806,-0.87737 -2.08992,-1.18964 -1.1223,-0.68808 -2.95701,-0.74742 -5.03557,-0.16287 -0.7957,0.22377 -1.95075,0.47716 -2.56679,0.56308 -2.31569,0.32297 -6.01171,-1.79452 -7.0868,-4.060107 -0.4056,-0.854739 -0.44818,-1.490338 -0.3169,-4.730478 0.18954,-4.677977 0.11133,-4.845161 -3.01984,-6.455052 -1.2181,-0.626287 -2.55325,-1.450699 -2.967,-1.832026 -1.06928,-0.985477 -2.04758,-3.046964 -2.21479,-4.666993 -0.1802,-1.745976 0.73695,-3.930954 2.10986,-5.026422 2.10758,-1.681677 7.06754,-2.722109 11.30824,-2.372088 1.52072,0.125517 2.22132,0.06384 2.99843,-0.263974 0.82241,-0.346918 0.95583,-0.497916 0.70597,-0.79898 -0.16944,-0.204171 -0.85445,-0.453152 -1.52222,-0.553292 -0.66778,-0.100139 -1.93797,-0.526649 -2.82264,-0.947801 l -1.6085,-0.765729 1.53447,0.16176 c 0.84395,0.08897 2.04529,0.387725 2.66965,0.663906 1.05177,0.46525 2.98677,0.708852 6.02909,0.759015 0.91741,0.01513 1.25949,0.131074 1.32292,0.448405 0.0686,0.343234 0.52735,0.448794 2.31626,0.532979 1.2269,0.05774 2.29828,0.172527 2.38084,0.255089 0.74561,0.745614 -3.88631,1.395002 -11.22614,1.573885 -6.80142,0.165761 -8.36056,0.389679 -10.61358,1.52428 -2.61,1.314376 -3.27705,2.165882 -3.27705,4.183272 0,2.812265 0.69495,3.656887 5.15938,6.270583 2.78155,1.628455 3.14609,2.28557 2.88917,5.20795 -0.10235,1.164167 -0.18822,2.985538 -0.19082,4.047492 -0.005,2.201366 0.32879,2.846639 2.13662,4.125496 1.40124,0.99123 3.04631,1.1509 5.72276,0.55545 2.62157,-0.58325 3.75932,-0.4429 6.3756,0.78647 1.31071,0.61589 2.55252,1.00866 3.26133,1.03152 1.0024,0.0323 1.25528,-0.0838 2.0346,-0.93402 0.50103,-0.54662 1.01056,-1.47163 1.16595,-2.116668 0.15181,-0.630157 0.46482,-1.720551 0.69558,-2.423097 0.23075,-0.702546 0.5304,-2.369421 0.66589,-3.704166 0.13548,-1.334746 0.43011,-3.85556 0.65474,-5.60181 0.22462,-1.74625 0.46422,-3.948906 0.53243,-4.894791 0.0682,-0.945886 0.32217,-2.095432 0.56432,-2.554547 0.4124,-0.78187 0.4102,-0.978144 -0.0347,-3.098073 -0.50488,-2.405848 -0.40259,-4.055664 0.26739,-4.312761 0.73845,-0.283369 1.10964,0.430736 1.29849,2.498057 0.10267,1.123851 0.40237,3.174459 0.66602,4.556907 0.50353,2.640359 0.67317,3.807818 1.05722,7.276042 0.16047,1.449163 0.56123,2.909326 1.2708,4.630208 1.81969,4.413207 3.46312,7.609656 4.21756,8.203099 l 0.72904,0.57346 0.14555,-0.61658 c 0.22034,-0.933384 0.90004,-0.884304 2.04208,0.14746 1.38904,1.25492 2.21018,1.53718 3.58341,1.23176 1.33596,-0.29713 2.33903,-1.38107 3.01334,-3.256265 0.53552,-1.489212 1.44351,-2.362424 4.45279,-4.282227 2.64408,-1.686823 3.03576,-2.32987 3.03704,-4.986065 8e-4,-1.677085 -0.12262,-2.303235 -0.66494,-3.37345 -1.20882,-2.385499 -5.10013,-5.776845 -8.70705,-7.588348 -1.32015,-0.663019 -2.86835,-1.606144 -3.44044,-2.095833 -0.57209,-0.489689 -1.17692,-0.890344 -1.34406,-0.890344 -0.16713,0 -0.83031,-0.34587 -1.47372,-0.768599 -1.49136,-0.979839 -3.94797,-1.746635 -3.94797,-1.232302 0,0.32755 1.2936,1.632343 2.51354,2.53528 1.63214,1.208032 6.48229,7.083716 6.48229,7.852934 0,0.976997 -1.22333,0.106836 -3.8753,-2.756511 -3.82989,-4.135152 -4.297,-4.572469 -4.88393,-4.572469 -0.75203,0 -0.61821,0.730354 0.46056,2.513542 0.5282,0.873125 1.17931,2.06375 1.4469,2.645833 0.26759,0.582083 0.76408,1.534583 1.1033,2.116667 0.87624,1.50355 1.77972,4.010201 1.77972,4.937735 0,0.609048 -0.10588,0.76954 -0.46302,0.701854 -0.29991,-0.05684 -0.75911,-0.826902 -1.30354,-2.186019 -0.75381,-1.881813 -2.52358,-4.863969 -5.84021,-9.841056 -0.69601,-1.044472 -1.12448,-1.988913 -1.12448,-2.478626 0,-0.883561 0.16181,-0.952143 0.91047,-0.38589 1.34246,1.015388 1.65032,-0.145638 0.41245,-1.555491 -0.43656,-0.497217 -0.79375,-1.025266 -0.79375,-1.173442 0,-0.148176 0.58366,-0.409429 1.29703,-0.580563 1.09105,-0.261739 1.42511,-0.24492 2.10353,0.105902 0.44357,0.22938 0.96162,0.417055 1.15121,0.417055 0.18959,0 0.93084,0.416718 1.64721,0.926041 0.71637,0.509323 1.39651,0.926042 1.5114,0.926042 0.19002,0 3.88273,2.296312 5.54046,3.445336 0.37573,0.260426 1.72688,1.023991 3.00256,1.696811 4.05111,2.136636 5.96351,3.950159 7.33602,6.95673 0.57249,1.254068 0.75189,2.044382 0.75077,3.307292 -0.003,3.350232 -0.99037,4.834419 -4.37468,6.57573 l -1.84155,0.947525 -1.32292,2.671495 c -0.7276,1.469326 -1.60831,2.974246 -1.95713,3.344276 -1.38529,1.46951 -3.5809,1.50686 -6.06221,0.10313 -0.77262,-0.43709 -1.46169,-0.73778 -1.53126,-0.66821 -0.0696,0.0696 0.0164,0.44005 0.19097,0.82327 0.5287,1.16038 -0.0147,1.15524 -1.04573,-0.01 -4.46162,-5.042055 -4.77295,-5.60026 -6.95846,-12.476448 -0.2922,-0.919327 -0.76136,-1.901593 -1.04258,-2.182812 -0.3604,-0.3604 -0.51237,-0.882235 -0.51492,-1.76808 -0.004,-1.513925 -0.22843,-2.447396 -0.5875,-2.447396 -0.16964,0 -0.19809,0.712011 -0.0791,1.981257 0.10401,1.109944 0.0582,3.000759 -0.10422,4.299479 -0.15943,1.275022 -0.52443,4.200552 -0.8111,6.501176 -0.63751,5.116204 -1.0262,6.071884 -3.01972,7.424734 -1.36419,0.92576 -3.29767,0.95452 -4.94644,0.0736 z M 89.379179,79.178796 c -0.97671,-0.425581 -2.44082,-2.047136 -2.66891,-2.955921 -0.0924,-0.368004 -0.0909,-1.150653 0.003,-1.739219 0.35344,-2.210251 1.63291,-3.853486 3.90165,-5.010913 1.10761,-0.565058 1.11149,-0.921349 0.0208,-1.90843 -0.28436,-0.257346 -0.72746,-0.934566 -0.98466,-1.504934 -0.44327,-0.982998 -0.44403,-1.096322 -0.0146,-2.17497 0.79163,-1.988218 1.58597,-2.803436 2.92768,-3.004638 1.24432,-0.186598 1.73202,-0.655177 1.52116,-1.461523 -0.0683,-0.261215 0.0591,-1.643289 0.28314,-3.071274 0.22403,-1.427985 0.47522,-3.46284 0.5582,-4.5219 0.12714,-1.622789 0.0833,-1.951473 -0.27858,-2.090352 -0.23619,-0.09063 -1.83631,0.269889 -3.55582,0.801163 -1.71952,0.531274 -4.05749,1.098355 -5.19549,1.26018 -2.73441,0.388837 -7.44436,0.131752 -9.47743,-0.51731 -0.87313,-0.278746 -2.46903,-0.66262 -3.54645,-0.853053 l -1.95895,-0.346241 -0.90945,1.041838 c -0.50019,0.573011 -1.44916,2.172932 -2.10881,3.55538 -1.9626,4.113042 -3.82437,6.490781 -5.90968,7.547487 -2.30481,1.167937 -8.50746,2.461621 -11.9416,2.490659 -1.45586,0.01231 -2.33236,-0.392007 -2.33236,-1.075885 0,-0.143197 0.89751,-1.295552 1.99445,-2.560789 1.09695,-1.265237 2.69386,-3.317449 3.5487,-4.560472 0.85483,-1.243023 2.10578,-2.768429 2.77988,-3.389791 1.40509,-1.295171 5.95386,-3.549698 8.4306,-4.178497 1.73308,-0.44 2.38285,-0.797911 2.14556,-1.18185 -0.0797,-0.129029 -1.12023,-0.972822 -2.31219,-1.875096 -2.58961,-1.96025 -4.2906,-3.439909 -10.60858,-9.228204 -4.99883,-4.579748 -7.50433,-6.527337 -10.4449,-8.119119 -0.96317,-0.521382 -2.06269,-1.162132 -2.44337,-1.423889 -1.04026,-0.71529 -5.5438,-2.232815 -8.87989,-2.992195 -5.59387,-1.273309 -11.17529,-0.751149 -13.25738,1.240269 -0.49722,0.475566 -1.3755,1.553341 -1.95174,2.395056 -1.28954,1.883639 -2.80905,3.01048 -5.90646,4.380146 -2.9462596,1.302827 -7.0880696,2.554137 -7.6898196,2.323223 -0.33911,-0.130126 -0.40975,-0.36608 -0.28954,-0.967127 0.22308,-1.115363 1.90104,-4.676601 2.69227,-5.713959 1.09606,-1.437016 3.75635,-3.300921 5.6399696,-3.951599 1.93464,-0.668302 5.6277,-1.266638 7.37592,-1.195021 0.61505,0.0252 1.57693,-0.07769 2.13751,-0.228641 2.49936,-0.673008 5.24495,-1.001714 6.53567,-0.782459 0.72658,0.123424 2.39262,0.356578 3.7023,0.518119 4.42263,0.545501 11.66693,3.541126 16.35912,6.764735 1.13939,0.782778 2.12165,1.423233 2.18281,1.423233 0.28189,0 0.0511,-0.633713 -0.60415,-1.658904 -1.49563,-2.340031 -2.93882,-5.448061 -3.64633,-7.852676 -0.77357,-2.629156 -0.76389,-2.31624 -0.25013,-8.083211 0.23117,-2.594908 0.30377,-2.7781252 1.10086,-2.7781252 0.54197,0 1.18928,0.4934672 2.70694,2.0636092 2.61104,2.701335 3.30757,3.754546 4.39645,6.647871 1.38747,3.686692 1.17918,6.290577 -0.85087,10.636978 -0.77528,1.659902 -0.89049,2.115715 -0.64887,2.567184 0.38833,0.725601 3.54214,3.664209 9.78588,9.118144 1.36723,1.194282 3.36433,2.960346 4.438,3.924587 1.56297,1.403672 2.38869,1.917934 4.14203,2.579688 1.20444,0.454586 2.34807,0.826521 2.54138,0.826521 0.19332,0 1.25889,0.286812 2.36794,0.63736 2.82222,0.892051 4.84298,1.214723 7.60728,1.214723 5.03354,0 11.17748,-2.055638 15.70812,-5.255622 4.869001,-3.43896 6.614591,-4.84705 6.614591,-5.335689 0,-0.573302 -0.14532,-0.61764 -3.43959,-1.0495 -1.23692,-0.162153 -2.823591,-0.407275 -3.525911,-0.544715 -0.70233,-0.137439 -1.79457,-0.24989 -2.42721,-0.24989 -1.1679,0 -2.44326,-0.212799 -5.8826,-0.981536 -1.59332,-0.356129 -2.09691,-0.372921 -3.00695,-0.100265 -1.26491,0.378977 -4.26848,0.191885 -6.705,-0.417654 -3.31713,-0.829839 -4.91066,-2.199905 -4.91066,-4.22202 0,-1.500792 0.63214,-2.123087 3.01401,-2.967061 0.96042,-0.340309 1.81944,-0.737216 1.90893,-0.882014 0.0895,-0.144799 0.1884,-0.997458 0.2198,-1.894798 0.0973,-2.780651 1.46704,-4.674395 3.38076,-4.674101 0.89924,1.38e-4 2.96113,0.697373 4.72814,1.598835 1.51644,0.773629 1.74277,0.684128 2.20345,-0.871365 0.22627,-0.763984 0.74073,-1.950709 1.14325,-2.637167 0.95481,-1.628319 3.42945,-4.175853 4.05637,-4.175853 0.71505,0 1.48849,0.941471 2.50572,3.050065 1.80048,3.732207 1.8262,6.042206 0.10556,9.482134 -1.18414,2.367348 -1.20219,2.461554 -0.59918,3.127869 0.38839,0.429172 0.40439,0.691279 0.13229,2.168005 -0.54402,2.952532 -0.63801,2.86422 3.870441,3.636961 2.63499,0.451632 3.31281,0.483921 4.55129,0.216808 1.69999,-0.366648 3.41423,-1.186757 5.05031,-2.416113 5.1518,-3.871083 10.8293,-7.092446 15.26864,-8.663299 3.19449,-1.130365 4.30029,-1.681807 3.99157,-1.990528 -0.0894,-0.08944 -1.49605,-0.628207 -3.1258,-1.197267 -3.51666,-1.227909 -4.03905,-1.540075 -5.76655,-3.445885 -1.78498,-1.969238 -2.18179,-2.838723 -2.51802,-5.517442 -0.34614,-2.757765 -0.13701,-4.2721412 0.58998,-4.2721412 0.27586,0 0.57125,0.112762 0.65643,0.250583 0.32901,0.5323472 3.80248,2.1734522 5.6113,2.6511632 4.65078,1.228272 6.23851,1.915999 7.64117,3.309779 1.71535,1.704505 2.11149,2.992291 1.8629,6.056052 -0.21131,2.60424 -0.0759,2.805633 2.08282,3.098582 5.16378,0.70074 11.772,6.207237 14.22567,11.853968 0.29219,0.672419 1.15798,2.65133 1.92399,4.39758 0.766,1.74625 1.60212,4.1275 1.85802,5.291666 0.25591,1.164167 0.90711,3.128698 1.44711,4.365625 0.54,1.236927 1.13105,2.706404 1.31345,3.265504 0.48091,1.474126 0.90578,0.848412 0.7218,-1.063 -0.0816,-0.847575 -0.33024,-3.505577 -0.55256,-5.90667 -0.22233,-2.401094 -0.59658,-5.071744 -0.83167,-5.934779 -0.33704,-1.237303 -0.40906,-2.552246 -0.34056,-6.217708 l 0.0869,-4.648554 1.12717,-2.305038 c 0.87477,-1.7889 1.40168,-2.514649 2.35315,-3.241146 2.54192,-1.940903 4.94702,-0.997579 8.02764,3.148588 2.96062,3.984657 3.6806,4.422737 5.72075,3.480889 2.69665,-1.24493 5.58296,-1.850898 8.88037,-1.864394 3.06921,-0.01256 3.0959,-0.0073 3.90682,0.768499 1.01422,0.970313 1.1908,1.62365 1.86342,6.894745 0.29689,2.326696 0.61176,4.622063 0.69969,5.100816 0.16146,0.879048 -0.0842,2.071941 -1.01419,4.924646 -0.70658,2.167426 -0.47666,3.251082 1.0899,5.136785 2.07087,2.492763 2.23808,2.842627 2.21808,4.640851 -0.0392,3.518981 -1.09388,5.007282 -4.53958,6.4057 -2.22233,0.901917 -5.90852,1.150712 -8.5051,0.574039 -5.42094,-1.203938 -6.95062,-1.513644 -8.86354,-1.794566 -1.16417,-0.170964 -2.81392,-0.368506 -3.66611,-0.438984 -1.54267,-0.12758 -1.54878,-0.13145 -1.39801,-0.885326 0.12522,-0.626064 0.0155,-0.853957 -0.63336,-1.316016 -0.43165,-0.307357 -0.78481,-0.738048 -0.78481,-0.95709 0,-0.896616 -0.93197,-0.166622 -1.40171,1.097935 -0.46619,1.255008 -0.47537,1.882861 -0.0474,3.238961 0.16115,0.510595 0.0921,0.595313 -0.48522,0.595313 -0.9181,0 -1.70687,-1.07782 -1.90152,-2.598309 -0.41695,-3.257027 -1.03092,-4.344502 -2.31264,-4.096152 -0.62418,0.120942 -0.71577,0.255272 -0.66146,0.970026 0.10661,1.40273 -0.64629,0.995746 -2.60831,-1.409941 -1.0046,-1.231772 -2.4814,-2.951471 -3.28176,-3.821555 l -1.45521,-1.581971 2.24896,1.54008 c 1.23693,0.847043 2.82702,2.090493 3.53355,2.763221 l 1.28459,1.223143 -0.11959,-0.926042 c -0.30284,-2.345053 -1.30457,-5.173648 -2.15512,-6.085417 -0.47512,-0.509322 -1.48271,-1.72038 -2.23909,-2.691238 -2.09936,-2.694665 -6.37232,-6.12837 -9.86513,-7.927503 -1.55908,-0.803077 -1.90972,-0.875064 -4.72671,-0.970392 l -3.04271,-0.102966 -1.30521,0.885112 c -0.71787,0.486812 -1.69415,1.480425 -2.16952,2.208029 -0.98052,1.500819 -1.05354,1.580745 -2.90645,3.181771 -2.42422,2.094672 -2.54865,3.877172 -0.3598,5.154557 1.51481,0.884028 1.61573,1.512117 0.45371,2.823864 -1.47414,1.664092 -1.78252,2.262104 -1.78252,3.456674 0,0.970051 0.16567,1.317991 1.12448,2.361604 1.14775,1.249272 4.76759,3.260752 5.87298,3.26351 0.29874,7.46e-4 1.01941,0.294686 1.6015,0.653201 0.84201,0.518606 0.94257,0.653533 0.49198,0.660103 -0.99378,0.01449 -5.63442,-1.297164 -6.95253,-1.965101 -1.18969,-0.602858 -2.99598,-2.446735 -3.68722,-3.763935 -0.64152,-1.222477 -0.11732,-3.239012 1.32059,-5.080158 0.71185,-0.911471 0.61078,-1.925908 -0.30693,-3.080696 -0.43985,-0.55348 -0.86732,-1.275634 -0.94993,-1.604786 -0.34486,-1.374044 0.68337,-2.747011 2.75349,-3.676647 1.51461,-0.680169 1.83835,-1.040854 3.04972,-3.397772 0.61701,-1.200482 1.8801,-2.093702 4.03362,-2.852447 1.29759,-0.45718 2.0064,-0.53302 4.08367,-0.436935 2.58112,0.119392 2.44839,0.07711 6.30687,2.009037 0.91908,0.460176 3.5925,2.634373 5.53633,4.502488 1.42885,1.373194 2.17971,1.803961 2.17971,1.250486 0,-0.902351 -1.24681,-3.68724 -3.26613,-7.295276 -3.39924,-6.073601 -6.49465,-8.794923 -11.44364,-10.060663 -4.59771,-1.175895 -9.32865,-0.374158 -15.98189,2.708395 -2.71794,1.259264 -5.48334,3.015595 -8.20209,5.209215 -1.38244,1.115428 -3.16838,2.494816 -3.96875,3.065306 -0.80036,0.57049 -2.12963,1.652217 -2.95393,2.403838 -0.8243,0.751621 -3.38919,2.683379 -5.69975,4.292795 -2.310561,1.609416 -4.335501,3.202705 -4.499871,3.540641 -0.16437,0.337937 -0.36897,1.685994 -0.45467,2.995681 -0.0857,1.309688 -0.34325,3.491782 -0.57233,4.849099 -0.38468,2.279157 -0.38314,2.504743 0.0201,2.950362 0.24017,0.265381 0.8421,0.558571 1.33763,0.651532 1.2551,0.23546 2.35258,1.24493 2.732661,2.513544 0.17698,0.590702 0.4778,1.074004 0.66849,1.074004 0.19068,0 0.71164,-0.587058 1.15767,-1.304574 1.0029,-1.613333 2.05336,-2.177775 4.36012,-2.342823 2.10175,-0.15038 3.86083,0.394766 4.69475,1.454917 0.59406,0.755226 0.71102,2.406764 0.23614,3.334353 -0.55801,1.089986 -2.21892,2.605705 -4.00361,3.653636 -2.06811,1.214352 -2.2598,1.795246 -0.99295,3.008969 1.03028,0.987067 1.94128,3.392489 1.77187,4.678453 -0.15041,1.141744 -1.28317,2.733813 -2.33043,3.275373 -1.34203,0.693991 -3.09485,0.4889 -4.86464,-0.569195 -0.873121,-0.522012 -1.978071,-1.322482 -2.455451,-1.778822 -0.62476,-0.597234 -0.96603,-0.757379 -1.218,-0.571561 -0.19254,0.141982 -0.93305,0.698503 -1.64559,1.236714 -1.37115,1.035672 -3.73689,2.071096 -4.69252,2.053787 -0.31447,-0.0057 -0.93117,-0.166958 -1.37044,-0.358359 z m 16.080611,-1.972674 c 1.13258,-1.109862 0.96661,-3.286714 -0.35809,-4.696798 -0.78114,-0.831482 -3.25431,-2.222229 -3.9518,-2.222229 -0.39937,0 -0.71846,0.371822 -1.192051,1.389062 -0.98745,2.120949 -0.88375,2.83552 0.638211,4.398062 1.8076,1.855793 3.68029,2.291611 4.86373,1.131903 z M 92.814539,76.982515 c 0.44159,-0.221629 1.30891,-0.891055 1.92738,-1.487613 0.88247,-0.851219 1.12447,-1.275055 1.12447,-1.969368 0,-0.746514 0.12487,-0.928245 0.79934,-1.163366 0.81491,-0.284079 1.31733,-0.9175 1.31733,-1.660804 0,-0.495051 -1.3306,-0.570374 -2.16713,-0.122677 -0.40535,0.216933 -0.70169,0.207654 -1.15741,-0.03624 -0.83396,-0.446327 -1.98885,-0.17056 -3.54092,0.84551 -1.39515,0.913348 -2.22611,2.150675 -2.50822,3.734824 -0.15705,0.881921 -0.0823,1.094876 0.63678,1.813946 0.71751,0.717509 0.93109,0.792884 1.7901,0.631733 0.53647,-0.100641 1.33669,-0.364317 1.77828,-0.585947 z m 5.92301,-9.161656 c 0.77386,-0.932441 -0.61956,-5.553096 -1.9344,-6.414617 -0.78177,-0.512232 -1.07296,-0.350886 -1.34346,0.744384 -0.14739,0.596794 -0.0322,0.864712 0.64274,1.495216 0.45226,0.422479 0.8223,0.951472 0.8223,1.175541 0,0.926707 -0.65484,0.689468 -1.98785,-0.720165 -1.66358,-1.759211 -2.52131,-1.950672 -3.16473,-0.706429 -0.69533,1.344607 -0.52368,2.22439 0.63888,3.274693 0.57424,0.518793 1.43589,1.005678 1.91822,1.08391 1.85891,0.301507 2.22855,0.346097 3.15839,0.381005 0.52789,0.01982 1.09035,-0.121275 1.24991,-0.313538 z m 6.979211,-0.877297 c 0.97931,-0.562151 2.31876,-1.474502 2.97656,-2.027448 0.96674,-0.812647 1.19599,-1.170196 1.19599,-1.865313 0,-1.319467 -0.35943,-1.494956 -3.06193,-1.494956 h -2.42693 l -1.06958,1.160367 c -0.58828,0.638202 -1.25829,1.525258 -1.48891,1.971236 -0.50141,0.969613 -0.54989,2.71407 -0.0886,3.187149 0.52454,0.537929 2.01376,0.188097 3.96339,-0.931035 z M 186.1,62.4542 c 2.73872,-0.813313 4.49171,-2.576407 4.48436,-4.510216 -0.005,-1.237409 -0.69307,-3.138704 -2.01321,-5.56053 l -1.24467,-2.283386 0.57204,-2.303388 c 0.84948,-3.420547 0.70124,-7.580707 -0.38946,-10.929217 -0.22801,-0.700018 -0.5778,-2.05294 -0.77731,-3.006494 -0.63065,-3.0142 -1.09372,-3.218016 -5.5872,-2.459185 -2.16648,0.365862 -3.83748,0.817732 -4.92228,1.331078 -2.47045,1.16906 -3.13431,1.225529 -4.56318,0.388151 -0.85367,-0.500283 -1.78728,-1.492981 -3.15665,-3.356435 -2.31169,-3.145783 -3.62257,-4.21852 -5.18129,-4.240032 -0.91319,-0.0126 -1.25497,0.146248 -2.10905,0.980236 -0.56059,0.547402 -1.2945,1.603375 -1.63092,2.346608 -0.58181,1.285383 -0.60918,1.616034 -0.56087,6.775289 0.0537,5.737151 0.56685,10.964903 1.40236,14.2875 0.27445,1.091406 0.56642,2.817812 0.64882,3.836458 0.27709,3.425403 0.79253,3.970593 1.36053,1.439056 0.17758,-0.791481 0.63622,-2.332025 1.01919,-3.423431 0.38298,-1.091406 0.88418,-2.520156 1.11378,-3.175 1.75743,-5.012255 1.95452,-5.388129 2.52581,-4.816839 0.4051,0.405092 -0.22099,3.121878 -1.51661,6.581077 -0.50387,1.345293 -0.91613,2.689312 -0.91613,2.986708 0,0.995377 0.78833,0.559468 1.77345,-0.980633 0.53522,-0.836745 1.5528,-2.086017 2.26129,-2.77616 2.95818,-2.881584 6.79823,-4.758723 6.12018,-2.991737 -0.1,0.260507 -1.08627,1.050732 -2.19178,1.756055 -2.95882,1.887747 -4.47202,3.134742 -4.84963,3.996474 -0.18446,0.420951 -0.7521,1.015451 -1.26143,1.32111 -0.57452,0.344786 -0.79243,0.602682 -0.57405,0.679396 0.19359,0.06801 0.67636,-0.187115 1.07281,-0.566941 0.39645,-0.379826 0.9284,-0.690593 1.1821,-0.690593 0.2537,0 1.59242,-0.595313 2.97493,-1.322917 2.80974,-1.478743 3.89975,-1.689496 3.76314,-0.727604 -0.068,0.47911 -0.99713,1.060121 -4.75979,2.976562 -4.31155,2.196016 -5.7758,3.101301 -5.7758,3.570936 0,0.244501 1.69166,-0.06156 4.94904,-0.895388 3.24126,-0.829703 4.31149,-0.886341 4.3111,-0.228152 -3.2e-4,0.559847 -2.01819,1.742005 -3.70389,2.169914 -1.76006,0.446781 -2.5914,0.812327 -2.74241,1.205851 -0.19811,0.516267 0.37937,0.652419 3.91365,0.922712 1.8255,0.13961 3.91778,0.475622 4.88249,0.784109 0.92847,0.296895 1.9405,0.548868 2.24896,0.559939 0.30847,0.01107 0.97757,0.180606 1.48689,0.376746 1.29107,0.497189 4.64237,0.482601 6.36069,-0.02769 z M 56.064159,62.335101 c 3.90209,-0.693643 7.82203,-2.827474 8.76125,-4.769208 1.02444,-2.117938 1.76391,-3.944072 1.64517,-4.062806 -0.1065,-0.106498 -0.87772,0.191641 -2.59665,1.003806 -0.35163,0.166143 -0.94695,0.605753 -1.32291,0.976912 -1.34123,1.32407 -3.4691,2.85844 -4.38183,3.159671 -1.03518,0.34164 -1.81296,0.274519 -1.52031,-0.1312 0.37331,-0.517528 4.72288,-4.038904 7.00449,-5.670775 1.27331,-0.910704 2.31511,-1.756291 2.31511,-1.879083 0,-0.545456 -0.62072,-0.455353 -2.735,0.39701 -3.60543,1.453508 -4.93517,2.220492 -6.371,3.674743 -1.51349,1.532904 -4.91692,6.478687 -4.91692,7.145146 0,0.526458 1.67661,0.589876 4.1186,0.155784 z m 39.22015,-26.232172 c 0.46334,-0.463343 0.39677,-2.475847 -0.0983,-2.970892 -0.51243,-0.51243 -0.50804,-0.512499 -1.03673,0.01619 -0.35036,0.350362 -0.55586,0.375516 -1.08779,0.133153 -1.39171,-0.634102 -3.57437,1.131964 -2.84218,2.299699 0.1975,0.314994 0.80321,0.486184 2.10235,0.594189 1.0037,0.08344 2.00946,0.17274 2.23502,0.198437 0.22555,0.0257 0.55297,-0.09615 0.7276,-0.270778 z m -7.70552,-2.224595 c 0.4523,-0.337706 0.74698,-0.804904 0.74698,-1.184311 0,-0.85654 -2.39579,-1.991469 -5.36758,-2.542725 -2.06738,-0.383489 -2.35811,-0.380774 -3.8581,0.03604 -1.76664,0.490906 -2.54828,1.029083 -2.54828,1.754544 0,0.832626 0.31346,1.317424 1.29011,1.995309 0.93702,0.65037 1.05029,0.663627 4.97437,0.582195 3.59619,-0.07463 4.09352,-0.141569 4.7625,-0.64105 z M 8.9424694,31.254594 c 2.5591596,-0.963263 3.8599996,-1.659142 4.8369496,-2.587505 1.55566,-1.478299 0.89757,-1.669814 -1.5289,-0.444934 -0.86898,0.438657 -1.57996,0.700138 -1.57996,0.581069 0,-0.434522 1.75553,-1.86996 3.12129,-2.552165 1.47829,-0.738421 1.96308,-1.370722 1.34904,-1.759531 -0.67066,-0.424654 -1.48141,-0.253802 -3.75367,0.791019 -3.3140396,1.52385 -5.4791596,3.760143 -5.4791596,5.659287 0,1.205444 0.5203,1.259071 3.03441,0.31276 z m 87.6990596,0.17354 c 0.14552,-0.271908 0.18913,-0.569824 0.0969,-0.662035 -0.18919,-0.189196 -1.13664,0.58837 -1.13664,0.932838 0,0.42431 0.77585,0.222233 1.03972,-0.270803 z m -6.18425,-1.190369 c 0.0865,-0.344529 0.0304,-1.326794 -0.12465,-2.182813 -0.33467,-1.847914 -0.93954,-2.486649 -2.98281,-3.149813 -0.77292,-0.250856 -1.77654,-0.67957 -2.23028,-0.952698 -1.15128,-0.693011 -1.86925,-0.621194 -2.76725,0.276803 -0.62161,0.621607 -0.7734,1.00302 -0.7734,1.943368 0,1.508899 0.28796,1.733851 3.57281,2.791075 1.45572,0.468522 3.00354,1.087016 3.43959,1.374432 1.05996,0.698659 1.67374,0.665649 1.86599,-0.100354 z m 4.59174,-0.619816 c 2.37706,-3.228328 3.0674,-5.716141 2.30955,-8.323046 -0.82303,-2.831119 -2.25492,-4.075116 -2.99449,-2.601556 -1.46512,2.919148 -2.73102,5.972015 -2.73102,6.586156 0,0.406635 0.23813,1.431458 0.52917,2.277385 0.29104,0.845927 0.52916,1.856754 0.52916,2.246282 0,1.542441 1.15218,1.451923 2.35763,-0.185221 z m -44.93073,-2.538957 c -0.20947,-0.209472 -0.2894,-0.140818 -0.2894,0.24859 0,0.699491 0.37001,1.070778 0.48784,0.489522 0.05,-0.246794 -0.0393,-0.578944 -0.19844,-0.738112 z m -0.34841,-2.716593 c -0.0724,-1.127661 -0.0315,-1.850729 0.0935,-1.653646 0.12213,0.19262 0.22387,0.542521 0.2261,0.777558 0.005,0.585134 1.01355,1.821619 1.48501,1.821619 0.68224,0 0.92546,-1.239599 0.66108,-3.369153 -0.24348,-1.961126 -1.26296,-4.344567 -3.11944,-7.292965 -1.30929,-2.079368 -2.17504,-1.509557 -2.38615,1.570492 -0.1262,1.841154 -0.0286,2.511983 0.82294,5.656403 0.66683,2.462357 1.13711,3.710951 1.51809,4.030535 0.30359,0.254662 0.61397,0.463021 0.68975,0.463021 0.0758,0 0.0799,-0.901739 0.009,-2.003864 z m 82.873601,-1.661175 c 0,-0.491193 -1.25371,-2.044936 -2.12244,-2.630371 -1.16967,-0.788241 -1.48852,-1.328353 -0.91426,-1.548716 0.25173,-0.0966 0.72735,0.06993 1.13913,0.398853 0.38882,0.310584 1.25743,0.857044 1.93024,1.214357 1.01922,0.541279 1.29933,0.594066 1.67904,0.316418 0.42832,-0.313196 0.42243,-0.403957 -0.0979,-1.50885 -0.45675,-0.969915 -0.9357,-1.41056 -2.73737,-2.518426 -2.33529,-1.435997 -5.03354,-2.5632 -7.26494,-3.034952 -0.77562,-0.163979 -1.80261,-0.629337 -2.35149,-1.065531 -1.15511,-0.917966 -1.59747,-0.970758 -1.83604,-0.219111 -0.45372,1.429563 0.71944,4.928844 2.22875,6.647851 0.79332,0.903549 4.14144,2.586434 5.14573,2.586434 0.21533,0 1.14634,0.357094 2.06892,0.793541 1.61375,0.763431 3.13261,1.039071 3.13261,0.568503 z m 15.875,55.695328 c 0,-0.363325 0.44122,-1.235259 0.98049,-1.937629 1.43438,-1.868189 3.78201,-5.384784 3.78201,-5.6652 0,-0.385361 -1.43586,-0.280243 -1.99995,0.146415 -0.28248,0.213654 -0.70401,0.392247 -0.93674,0.396875 -0.23273,0.0046 -1.19803,0.419623 -2.1451,0.922211 -2.70659,1.436319 -5.80345,2.594302 -6.11225,2.285504 -0.48902,-0.48902 0.31395,-1.019817 5.06417,-3.347649 2.57106,-1.259942 4.91278,-2.50279 5.20382,-2.761886 0.53275,-0.474265 3.45761,-1.781328 4.56407,-2.039585 0.85289,-0.199073 0.7941,0.802788 -0.11722,1.997592 -0.9356,1.226635 -2.24107,3.193181 -2.68182,4.03987 -0.1934,0.37153 -1.3273,1.974351 -2.51978,3.561824 -2.2239,2.960542 -3.0817,3.629055 -3.0817,2.401658 z m 5.3564,-0.634978 c 0.0739,-0.545704 0.34994,-1.468438 0.61338,-2.050521 0.47283,-1.044777 0.48026,-1.048903 0.58029,-0.322122 0.12098,0.879058 -0.65465,3.36483 -1.04992,3.36483 -0.16894,0 -0.22538,-0.389607 -0.14375,-0.992187 z m -3.67562,-17.328272 c 0.0432,-0.950717 0.0934,-0.917078 -4.5912,-3.077168 -6.60679,-3.046407 -7.77111,-3.745427 -7.1962,-4.320341 0.16528,-0.165283 1.27677,0.23133 3.13092,1.117206 1.58106,0.755403 3.3509,1.559178 3.93299,1.786166 2.80141,1.092436 7.24316,4.610822 6.45277,5.111356 -0.20205,0.127951 -0.68257,0.234461 -1.06783,0.236689 -0.62233,0.0036 -0.69611,-0.09165 -0.66145,-0.853908 z"
       id="path1" /></g></svg>
